<svg width="18" height="17" viewBox="0 0 18 17" fill="none" xmlns="http://www.w3.org/2000/svg">
<path d="M7.48208 9.92743C8.58542 11.0069 9.92044 11.8403 11.3934 12.3691L13.386 10.8399C13.4451 10.8006 13.5151 10.7796 13.5869 10.7796C13.6586 10.7796 13.7286 10.8006 13.7877 10.8399L17.4876 13.1388C17.628 13.2203 17.7469 13.3321 17.8349 13.4655C17.9228 13.5989 17.9774 13.7501 17.9944 13.9073C18.0113 14.0646 17.9901 14.2234 17.9324 14.3714C17.8747 14.5193 17.7821 14.6523 17.662 14.7598L15.9284 16.4114C15.6801 16.648 15.3749 16.8216 15.0401 16.9168C14.7054 17.012 14.3513 17.0257 14.0097 16.9568C10.6017 16.278 7.46048 14.6882 4.94503 12.3691C2.4854 10.027 0.783347 7.04677 0.0453422 3.79007C-0.027563 3.46569 -0.0123467 3.12864 0.0895166 2.8116C0.19138 2.49455 0.376436 2.20826 0.62675 1.98047L2.42383 0.308493C2.53504 0.19828 2.67066 0.113757 2.82053 0.0612544C2.97041 0.00875193 3.13066 -0.01037 3.28929 0.00532045C3.44791 0.0210109 3.6008 0.0711072 3.73651 0.151858C3.87221 0.232609 3.98722 0.341922 4.07291 0.471612L6.53597 3.99397C6.57845 4.04928 6.60139 4.11629 6.60139 4.18512C6.60139 4.25396 6.57845 4.32097 6.53597 4.37628L4.91331 6.25725C5.47653 7.64934 6.35401 8.90305 7.48208 9.92743Z" fill="#747474"/>
</svg>
