<svg width="21" height="19" viewBox="0 0 21 19" fill="none" xmlns="http://www.w3.org/2000/svg">
<path d="M9.66089 0.10535C9.56597 0.163358 9.44468 0.284647 9.38667 0.379569C9.2812 0.548319 9.2812 0.65906 9.2812 6.52312C9.2812 9.80847 9.27065 12.4979 9.25483 12.4979C9.23901 12.4979 8.59038 11.9864 7.80464 11.3641C6.80269 10.5731 6.31753 10.2145 6.16987 10.1776C5.80073 10.0774 5.36831 10.2673 5.19429 10.5995C5.09409 10.7999 5.09409 11.1954 5.19429 11.4116C5.25229 11.5329 5.93257 12.1077 7.44604 13.3206C8.63784 14.2751 9.66089 15.0819 9.72417 15.1188C9.86655 15.2032 10.3623 15.2085 10.5046 15.1294C10.5679 15.0925 11.6226 14.2645 12.846 13.2837C14.3173 12.1024 15.1083 11.438 15.1664 11.3272C15.3667 10.9475 15.2296 10.4307 14.871 10.1934C14.6707 10.0563 14.2435 10.03 14.0273 10.1407C13.9535 10.1776 13.2521 10.7261 12.4611 11.3536C11.6701 11.9811 11.0109 12.4979 10.9951 12.4979C10.9792 12.4979 10.9687 9.80847 10.9687 6.52312C10.9687 0.65906 10.9687 0.548319 10.8632 0.379569C10.705 0.126444 10.4677 -0.000119209 10.125 -0.000119209C9.92983 -0.000119209 9.7769 0.0315218 9.66089 0.10535Z" fill="black"/>
<path d="M9.66089 0.10535C9.56597 0.163358 9.44468 0.284647 9.38667 0.379569C9.2812 0.548319 9.2812 0.65906 9.2812 6.52312C9.2812 9.80847 9.27065 12.4979 9.25483 12.4979C9.23901 12.4979 8.59038 11.9864 7.80464 11.3641C6.80269 10.5731 6.31753 10.2145 6.16987 10.1776C5.80073 10.0774 5.36831 10.2673 5.19429 10.5995C5.09409 10.7999 5.09409 11.1954 5.19429 11.4116C5.25229 11.5329 5.93257 12.1077 7.44604 13.3206C8.63784 14.2751 9.66089 15.0819 9.72417 15.1188C9.86655 15.2032 10.3623 15.2085 10.5046 15.1294C10.5679 15.0925 11.6226 14.2645 12.846 13.2837C14.3173 12.1024 15.1083 11.438 15.1664 11.3272C15.3667 10.9475 15.2296 10.4307 14.871 10.1934C14.6707 10.0563 14.2435 10.03 14.0273 10.1407C13.9535 10.1776 13.2521 10.7261 12.4611 11.3536C11.6701 11.9811 11.0109 12.4979 10.9951 12.4979C10.9792 12.4979 10.9687 9.80847 10.9687 6.52312C10.9687 0.65906 10.9687 0.548319 10.8632 0.379569C10.705 0.126444 10.4677 -0.000119209 10.125 -0.000119209C9.92983 -0.000119209 9.7769 0.0315218 9.66089 0.10535Z" fill="url(#paint0_linear_1243_4)"/>
<path d="M0.379688 11.918C0.284766 11.976 0.163477 12.0973 0.105469 12.1922C0.00527344 12.3557 0 12.4611 0 14.4281C0 16.1525 0.0158203 16.5322 0.084375 16.7748C0.311133 17.5553 0.970313 18.2197 1.74551 18.4623C2.05664 18.5572 2.3625 18.5625 10.1197 18.5625C17.318 18.5625 18.2039 18.552 18.4623 18.4781C19.2428 18.2514 19.9072 17.5922 20.1498 16.817C20.2395 16.527 20.25 16.3107 20.25 14.4334C20.25 12.4611 20.2447 12.3557 20.1445 12.1922C19.8387 11.6912 19.0055 11.6701 18.6838 12.1658C18.5994 12.2924 18.5889 12.4928 18.5625 14.2646C18.5361 16.0945 18.5309 16.2264 18.4307 16.3951C18.2936 16.6271 18.1037 16.7643 17.8453 16.8223C17.5711 16.8855 2.67891 16.8855 2.40469 16.8223C2.14629 16.7643 1.95645 16.6271 1.81934 16.3951C1.71914 16.2264 1.71387 16.0945 1.6875 14.2646C1.65586 12.0973 1.66641 12.1342 1.30254 11.918C1.07051 11.7756 0.611719 11.7756 0.379688 11.918Z" fill="black"/>
<path d="M0.379688 11.918C0.284766 11.976 0.163477 12.0973 0.105469 12.1922C0.00527344 12.3557 0 12.4611 0 14.4281C0 16.1525 0.0158203 16.5322 0.084375 16.7748C0.311133 17.5553 0.970313 18.2197 1.74551 18.4623C2.05664 18.5572 2.3625 18.5625 10.1197 18.5625C17.318 18.5625 18.2039 18.552 18.4623 18.4781C19.2428 18.2514 19.9072 17.5922 20.1498 16.817C20.2395 16.527 20.25 16.3107 20.25 14.4334C20.25 12.4611 20.2447 12.3557 20.1445 12.1922C19.8387 11.6912 19.0055 11.6701 18.6838 12.1658C18.5994 12.2924 18.5889 12.4928 18.5625 14.2646C18.5361 16.0945 18.5309 16.2264 18.4307 16.3951C18.2936 16.6271 18.1037 16.7643 17.8453 16.8223C17.5711 16.8855 2.67891 16.8855 2.40469 16.8223C2.14629 16.7643 1.95645 16.6271 1.81934 16.3951C1.71914 16.2264 1.71387 16.0945 1.6875 14.2646C1.65586 12.0973 1.66641 12.1342 1.30254 11.918C1.07051 11.7756 0.611719 11.7756 0.379688 11.918Z" fill="url(#paint1_linear_1243_4)"/>
<defs>
<linearGradient id="paint0_linear_1243_4" x1="16.4137" y1="-17.9832" x2="3.89317" y2="-17.9293" gradientUnits="userSpaceOnUse">
<stop stop-color="#717171"/>
<stop offset="0.488726" stop-color="#272727"/>
<stop offset="1" stop-color="#7D7D7D"/>
</linearGradient>
<linearGradient id="paint1_linear_1243_4" x1="22.5563" y1="3.80277" x2="-2.4395" y2="4.28565" gradientUnits="userSpaceOnUse">
<stop stop-color="#717171"/>
<stop offset="0.488726" stop-color="#272727"/>
<stop offset="1" stop-color="#7D7D7D"/>
</linearGradient>
</defs>
</svg>
