<svg width="24" height="24" viewBox="0 0 24 24" fill="none" xmlns="http://www.w3.org/2000/svg">
<path d="M6.83346 0H16.7302C20.5004 0 23.5636 3.06327 23.5636 6.83346V16.7302C23.5636 18.5425 22.8437 20.2806 21.5622 21.5622C20.2806 22.8437 18.5425 23.5636 16.7302 23.5636H6.83346C3.06327 23.5636 0 20.5004 0 16.7302V6.83346C0 5.02111 0.719951 3.28299 2.00147 2.00147C3.28299 0.719951 5.02111 0 6.83346 0ZM6.59782 2.35636C5.47291 2.35636 4.39408 2.80323 3.59866 3.59866C2.80323 4.39408 2.35636 5.47291 2.35636 6.59782V16.9658C2.35636 19.3104 4.25324 21.2073 6.59782 21.2073H16.9658C18.0907 21.2073 19.1696 20.7604 19.965 19.965C20.7604 19.1696 21.2073 18.0907 21.2073 16.9658V6.59782C21.2073 4.25324 19.3104 2.35636 16.9658 2.35636H6.59782ZM17.9673 4.12364C18.3579 4.12364 18.7325 4.2788 19.0086 4.55499C19.2848 4.83118 19.44 5.20577 19.44 5.59636C19.44 5.98696 19.2848 6.36155 19.0086 6.63774C18.7325 6.91393 18.3579 7.06909 17.9673 7.06909C17.5767 7.06909 17.2021 6.91393 16.9259 6.63774C16.6497 6.36155 16.4945 5.98696 16.4945 5.59636C16.4945 5.20577 16.6497 4.83118 16.9259 4.55499C17.2021 4.2788 17.5767 4.12364 17.9673 4.12364ZM11.7818 5.89091C13.3442 5.89091 14.8426 6.51156 15.9473 7.61632C17.0521 8.72108 17.6727 10.2195 17.6727 11.7818C17.6727 13.3442 17.0521 14.8426 15.9473 15.9473C14.8426 17.0521 13.3442 17.6727 11.7818 17.6727C10.2195 17.6727 8.72108 17.0521 7.61632 15.9473C6.51156 14.8426 5.89091 13.3442 5.89091 11.7818C5.89091 10.2195 6.51156 8.72108 7.61632 7.61632C8.72108 6.51156 10.2195 5.89091 11.7818 5.89091ZM11.7818 8.24727C10.8444 8.24727 9.94537 8.61966 9.28252 9.28252C8.61966 9.94537 8.24727 10.8444 8.24727 11.7818C8.24727 12.7192 8.61966 13.6183 9.28252 14.2811C9.94537 14.944 10.8444 15.3164 11.7818 15.3164C12.7192 15.3164 13.6183 14.944 14.2811 14.2811C14.944 13.6183 15.3164 12.7192 15.3164 11.7818C15.3164 10.8444 14.944 9.94537 14.2811 9.28252C13.6183 8.61966 12.7192 8.24727 11.7818 8.24727Z" fill="#686868"/>
</svg>
