<svg width="16" height="8" viewBox="0 0 16 8" fill="none" xmlns="http://www.w3.org/2000/svg">
<path d="M11.8247 0.290731C11.5216 0.446935 11.3873 0.799956 11.5123 1.10924C11.5466 1.18734 11.9278 1.59035 12.6932 2.35575L13.8241 3.48979L7.12604 3.48979L0.428 3.48979L0.293664 3.5679C0.0968466 3.68349 0 3.86468 0 4.11461C0 4.36454 0.0968466 4.54573 0.293664 4.66132L0.428 4.73943L7.12604 4.73943H13.8241L12.6932 5.87035C11.9278 6.63887 11.5466 7.04188 11.5123 7.11998C11.406 7.37928 11.4935 7.69169 11.7216 7.87601C11.8122 7.94474 11.8809 7.96973 12.009 7.98223C12.3745 8.01034 12.2464 8.11344 14.1271 6.26086C15.0737 5.32988 15.8797 4.51137 15.9203 4.43951C16.0266 4.26144 16.0266 3.96778 15.9203 3.78971C15.8266 3.62725 12.4682 0.315723 12.3558 0.271986C12.2308 0.225125 11.9309 0.234497 11.8247 0.290731Z" fill="#EE8524"/>
</svg>
