<svg width="98" height="98" viewBox="0 0 98 98" fill="none" xmlns="http://www.w3.org/2000/svg">
<path d="M44.5377 0.125034C44.4129 0.22905 43.1855 0.395466 41.4589 0.520283C38.6714 0.728306 34.4485 1.89324 30.2256 3.59904C15.2895 9.69415 4.30579 22.9245 1.01901 38.7343C0.45734 41.4803 -0.000313289 45.2871 0.103699 46.452C0.166106 47.2633 0.166106 47.2425 2.6624 43.6021C4.03536 41.5843 6.074 38.5887 7.17653 36.9661C8.29986 35.3436 9.21517 33.9082 9.21517 33.7626C9.21517 33.5337 11.6491 32.9097 37.4441 26.6273L48.6982 23.8606L61.6789 27.0434C85.9969 32.9929 88.3684 33.5961 88.3268 33.8458C88.2852 34.0746 89.0757 35.2811 94.9212 43.8725L97.5215 47.7002L97.5839 46.6809C97.6879 45.3287 97.2927 41.8547 96.6686 38.8384C93.5482 23.2157 82.627 9.94378 67.774 3.72386C61.4917 1.08195 55.8958 0.000221252 48.511 0.000221252C46.3891 0.000221252 44.6001 0.0626297 44.5377 0.125034Z" fill="#9D9D9D"/>
<path d="M23.4651 34.1151C14.7697 34.1775 10.1724 34.2815 10.1932 34.4271C10.214 34.6143 11.5037 36.5282 16.85 44.3291C18.0565 46.0765 18.9926 47.6575 18.9926 47.9279C18.9926 48.6976 17.4324 49.7585 15.0818 50.549C13.0639 51.2147 8.67461 51.4851 6.34474 51.0899C3.91086 50.653 1.95543 49.8625 0.894505 48.8848L0 48.0527L0.124815 51.3395C0.353641 58.1419 1.87222 63.9458 5.159 70.6234C10.3596 81.2118 19.2006 89.4287 30.2259 93.9637C36.3835 96.4808 41.9169 97.5625 48.8441 97.5625C55.8129 97.5625 61.6168 96.4184 67.6703 93.8805C74.1191 91.1554 79.6109 87.3901 84.2082 82.5431C92.4252 73.8477 97.189 62.7184 97.5634 51.2771L97.6674 47.9487L96.7729 48.8016C94.7967 50.6946 92.758 51.1939 87.1622 51.1939C85.2276 51.1939 84.0834 51.0899 83.3553 50.861C82.7937 50.6946 82.0032 50.445 81.6079 50.3202C80.443 49.9457 78.9452 48.8848 78.6748 48.2191C78.446 47.6575 78.5292 47.4911 80.4638 44.5579C81.5871 42.8729 83.5842 39.9606 84.8947 38.0884C86.2053 36.1953 87.3286 34.4895 87.391 34.2815C87.4742 33.9279 86.8293 33.9071 70.5618 33.9487L53.6287 34.0111L53.6911 56.5401L53.7535 79.0483L48.6361 79.0067L43.5395 78.9443L43.4771 56.4777L43.4355 34.0111H40.1071C38.2765 34.0111 30.7876 34.0527 23.4651 34.1151ZM42.9154 42.332V46.5965H40.752C39.5662 46.5965 38.4429 46.659 38.2557 46.7214C37.9644 46.8462 37.9228 48.4688 37.9228 62.9473V79.0483H33.9704H30.0179V58.7036C30.0179 47.5119 30.0803 38.2756 30.1635 38.2132C30.2259 38.13 33.1383 38.0675 36.6123 38.0675H42.9154V42.332ZM67.0462 56.2073C67.0462 66.1924 67.1086 75.4287 67.1918 76.7185L67.3167 79.0483L63.281 79.0067L59.2453 78.9443L59.2037 62.8224L59.1413 46.7006L56.645 46.6381L54.1487 46.5757V42.332V38.0675H60.5975H67.0462V56.2073Z" fill="#9D9D9D"/>
<path d="M8.94486 35.4051C7.13505 37.8806 0.915123 47.3041 1.03994 47.4082C1.12315 47.4706 5.034 47.5122 9.69375 47.4706C16.3089 47.429 18.1811 47.3665 18.0979 47.1585C17.9523 46.7633 9.83937 34.9683 9.63134 34.8435C9.52733 34.7811 9.21529 35.0307 8.94486 35.4051Z" fill="#9D9D9D"/>
<path d="M83.5628 40.9172C81.2953 44.3288 79.3815 47.2412 79.3607 47.3868C79.2983 47.6156 80.8377 47.6572 87.8481 47.6156C92.5494 47.5948 96.4395 47.4908 96.5019 47.4076C96.5643 47.3036 95.6282 45.8474 94.4424 44.1624C93.2567 42.4566 91.3221 39.6483 90.1571 37.9009C88.9922 36.1743 87.9729 34.7389 87.8689 34.7389C87.7857 34.7389 85.851 37.5264 83.5628 40.9172Z" fill="#9D9D9D"/>
</svg>
