<svg width="64" height="64" viewBox="0 0 64 64" fill="none" xmlns="http://www.w3.org/2000/svg">
<g filter="url(#filter0_d_1218_419)">
<path d="M10.9672 2.26406C10.9344 3.72969 10.8688 4.69219 10.7703 4.97656C10.5844 5.54531 9.55625 6.57344 8.97656 6.77031C8.69219 6.86875 7.7625 6.93438 6.275 6.96719L4 7.02188V31.2375V55.4641L4.27344 55.7266L4.53594 56H24.0156H43.4953L43.7578 55.7266L44.0312 55.4641V49.0328V42.6016L40.7281 45.9047C38.9016 47.7094 37.2938 49.2516 37.1516 49.3281C37.0094 49.3938 35.4672 50.0062 33.7062 50.6734L30.5234 51.8984L19.6078 51.9313L8.69219 51.9531L8.36406 51.6359C7.97031 51.2422 7.95937 50.8703 8.33125 50.4328L8.61562 50.0938H18.175H27.7344V49.7C27.7344 49.35 29.8891 43.3562 30.3047 42.5578C30.3922 42.3828 33.5094 39.1672 37.25 35.4047L44.0312 28.5688V14.5578V0.535938L43.7578 0.273438L43.4953 0H27.2641H11.0219L10.9672 2.26406ZM26.5859 2.29688C27.1109 2.54844 28.1828 3.81719 28.5219 4.58281C28.7297 5.03125 28.7406 5.45781 28.5547 5.91719C28.5109 6.0375 29.725 7.65625 32.5469 11.2219L36.6047 16.3516L37.1187 16.4172C37.4031 16.45 37.775 16.5484 37.95 16.625C38.3766 16.8328 39.7328 18.6156 39.875 19.1516C40.0172 19.6547 39.8859 20.2781 39.5359 20.7156C39.2406 21.0984 31.1797 27.5625 30.6875 27.8031C29.7797 28.2734 28.9266 27.9453 28.0078 26.775C27.0125 25.5063 26.8594 25.0469 27.1328 24.1063C27.1766 23.975 27.1219 23.7891 26.9906 23.625L26.7719 23.3625L26.1922 23.8547C24.7812 25.0578 23.4469 25.2328 22.2656 24.3797L21.8281 24.0625L17.1578 27.8359C12.0609 31.9484 11.9625 32.0141 10.7812 31.9047C9.98281 31.8391 9.39219 31.5219 8.82344 30.8875C7.97031 29.925 7.83906 28.6453 8.4625 27.5188C8.73594 27.0375 9.40312 26.4578 13.1438 23.4281C15.5391 21.4813 17.6281 19.8078 17.7812 19.6875L18.0547 19.4906L17.7922 18.9547C17.4203 18.1891 17.3766 17.3688 17.6719 16.6031C17.8578 16.1 18.0656 15.8266 18.6891 15.2578C19.1156 14.8641 19.5094 14.5469 19.5531 14.5469C19.7172 14.5469 19.6297 14.2734 19.3672 13.9672C19.1594 13.7375 19.0062 13.6719 18.6453 13.6719C18.3828 13.6719 18.0109 13.5734 17.7703 13.4313C17.2562 13.1469 16.0641 11.6484 15.8453 11.0359C15.6812 10.5547 15.7797 9.92031 16.075 9.46094C16.2828 9.13281 24.475 2.5375 25 2.275C25.4922 2.0125 26.0281 2.02344 26.5859 2.29688ZM32.5469 35.2734C32.8969 35.5906 32.9953 35.9188 32.8641 36.3125C32.6125 37.0016 33.2687 36.9688 20.4937 36.9688C9.21719 36.9688 8.85625 36.9578 8.51719 36.7609C7.85 36.3453 7.98125 35.3391 8.73594 35.1203C8.94375 35.0547 13.6797 35.0219 20.6906 35.0328C32.1422 35.0547 32.3062 35.0547 32.5469 35.2734ZM27.4719 40.2391C27.8656 40.4797 28.0187 40.9281 27.8438 41.3438C27.5812 41.9672 27.9312 41.9453 18 41.9453C8.06875 41.9453 8.41875 41.9672 8.15625 41.3438C7.98125 40.9281 8.13438 40.4797 8.52812 40.2391C8.85625 40.0422 9.21719 40.0312 18 40.0312C26.7828 40.0312 27.1437 40.0422 27.4719 40.2391ZM24.6172 45.3359C24.8031 45.5109 24.8906 45.7188 24.8906 45.9922C24.8906 46.2656 24.8031 46.4734 24.6172 46.6484L24.3547 46.9219H16.5234H8.68125L8.36406 46.6047C8.17812 46.4078 8.04688 46.1672 8.04688 45.9922C8.04688 45.8172 8.17812 45.5766 8.36406 45.3797L8.68125 45.0625H16.5234H24.3547L24.6172 45.3359Z" fill="#9D9D9D"/>
<path d="M21.7733 7.12044C19.6077 8.85951 17.792 10.347 17.7373 10.4345C17.6717 10.5329 17.7811 10.7626 18.1202 11.1892C18.3827 11.5283 18.6233 11.8017 18.6561 11.8017C18.6889 11.8126 20.417 10.4454 22.5061 8.76107C24.5952 7.08763 26.4327 5.61107 26.5858 5.49076L26.8811 5.26107L26.367 4.62669C26.0827 4.27669 25.8202 3.98138 25.7764 3.97044C25.7436 3.95951 23.9389 5.37044 21.7733 7.12044Z" fill="#9D9D9D"/>
<path d="M23.9279 9.98612C22.1779 11.3861 20.7451 12.5674 20.7451 12.633C20.7342 12.8517 28.467 22.4767 28.6311 22.4658C28.8279 22.4439 35.0623 17.4892 35.0295 17.3689C34.9967 17.2705 27.3076 7.56894 27.1983 7.50331C27.1545 7.4705 25.6779 8.58612 23.9279 9.98612Z" fill="#9D9D9D"/>
<path d="M20.056 16.5156C19.3888 17.1063 19.2247 17.4781 19.4216 17.9813C19.531 18.2875 22.2872 21.7875 23.0201 22.5531C23.3482 22.9031 23.4685 22.9688 23.8622 22.9688C24.2451 22.9688 24.4201 22.8813 24.9451 22.4656C25.306 22.1703 25.5357 21.8969 25.5029 21.8203C25.3935 21.525 20.931 15.9688 20.8107 15.9688C20.7341 15.9688 20.3951 16.2203 20.056 16.5156Z" fill="#9D9D9D"/>
<path d="M32.9516 21.4922C30.7422 23.275 28.9375 24.7734 28.9375 24.8391C28.9375 24.9813 29.8125 26.0859 29.9328 26.0859C30.0641 26.0859 38.0156 19.6656 38.0156 19.5563C38.0156 19.4469 37.1516 18.3313 37.0422 18.2875C36.9984 18.2766 35.1609 19.7203 32.9516 21.4922Z" fill="#9D9D9D"/>
<path d="M14.7735 24.4889C11.5688 27.0702 10.2344 28.2077 10.0923 28.4811C9.56726 29.5092 10.7048 30.4827 11.6563 29.8374C12.0063 29.5967 16.7204 25.8233 19.5094 23.5374L20.6251 22.6295L20.111 21.9733C19.8157 21.6124 19.5094 21.2186 19.4219 21.0983C19.2579 20.9014 19.0501 21.0545 14.7735 24.4889Z" fill="#9D9D9D"/>
<path d="M7.11719 3.17188L5.25781 5.03125H6.75625C7.64219 5.03125 8.36406 4.97656 8.52812 4.91094C8.95469 4.71406 9.04219 4.33125 9.00937 2.75625L8.97656 1.3125L7.11719 3.17188Z" fill="#9D9D9D"/>
<path d="M55.8438 19.7203C55.4609 19.8406 53.7656 21.3609 53.7656 21.5906C53.7656 21.6562 54.7281 22.6734 55.8984 23.8438L58.0312 25.9766L58.8078 25.2109C59.7375 24.2922 60 23.8219 60 23.0781C60 22.2578 59.8031 21.9188 58.6766 20.825C57.4188 19.6 56.8828 19.3922 55.8438 19.7203Z" fill="#9D9D9D"/>
<path d="M51.6 23.6578C51.2281 24.0297 50.9219 24.3906 50.9219 24.4453C50.9219 24.5109 51.8844 25.5172 53.0547 26.6875L55.1875 28.8203L55.8984 28.1094C56.2922 27.7266 56.6094 27.3547 56.6094 27.2891C56.6094 27.1797 52.4531 22.9688 52.3438 22.9688C52.3109 22.9688 51.9719 23.275 51.6 23.6578Z" fill="#9D9D9D"/>
<path d="M40.9906 34.2672C36.3531 38.9047 32.5469 42.7656 32.5469 42.8203C32.5469 42.8859 32.8641 43.2578 33.2578 43.6406L33.9688 44.3516L42.5 35.8203L51.0312 27.2891L50.2984 26.5562C49.8937 26.1406 49.5328 25.8125 49.5 25.8125C49.4672 25.8125 45.6391 29.6188 40.9906 34.2672Z" fill="#9D9D9D"/>
<path d="M43.7797 37.1656L35.2812 45.6641L36.0469 46.4297L36.8125 47.1953L45.2891 38.7188C49.9484 34.0594 53.7656 30.1875 53.7656 30.1328C53.7656 30.0234 52.4422 28.6562 52.3438 28.6562C52.3109 28.6562 48.4609 32.4844 43.7797 37.1656Z" fill="#9D9D9D"/>
<path d="M30.5344 47.1407C30.0203 48.5298 29.5938 49.7329 29.5938 49.8094C29.5938 49.8969 29.6703 49.9844 29.7578 50.0173C29.8781 50.0719 34.625 48.3766 34.9859 48.1579C35.0844 48.1032 31.6938 44.6251 31.5516 44.6251C31.5078 44.6251 31.0594 45.7626 30.5344 47.1407Z" fill="#9D9D9D"/>
</g>
<defs>
<filter id="filter0_d_1218_419" x="0" y="0" width="64" height="64" filterUnits="userSpaceOnUse" color-interpolation-filters="sRGB">
<feFlood flood-opacity="0" result="BackgroundImageFix"/>
<feColorMatrix in="SourceAlpha" type="matrix" values="0 0 0 0 0 0 0 0 0 0 0 0 0 0 0 0 0 0 127 0" result="hardAlpha"/>
<feOffset dy="4"/>
<feGaussianBlur stdDeviation="2"/>
<feComposite in2="hardAlpha" operator="out"/>
<feColorMatrix type="matrix" values="0 0 0 0 0 0 0 0 0 0 0 0 0 0 0 0 0 0 0.25 0"/>
<feBlend mode="normal" in2="BackgroundImageFix" result="effect1_dropShadow_1218_419"/>
<feBlend mode="normal" in="SourceGraphic" in2="effect1_dropShadow_1218_419" result="shape"/>
</filter>
</defs>
</svg>
