<svg width="56" height="56" viewBox="0 0 56 56" fill="none" xmlns="http://www.w3.org/2000/svg">
<path d="M18.41 3.37134C18.375 6.56801 18.3633 6.76634 18.13 7.06968C18.0016 7.24467 17.745 7.50134 17.57 7.62967C17.2666 7.86301 17.0683 7.87468 13.8133 7.90968L10.3833 7.94468V20.2997C10.3833 27.1013 10.4183 32.6663 10.4766 32.6663C10.5233 32.6663 10.7683 32.5847 11.025 32.4913C11.6433 32.2697 12.2033 32.2697 12.9033 32.503C13.4166 32.678 13.9766 33.203 18.2933 37.4963C21.4316 40.623 23.1816 42.4547 23.3333 42.758C23.4616 43.0263 23.6016 43.4813 23.6366 43.7847L23.7183 44.333H32.0483H40.39L40.2966 44.0063C40.2383 43.8313 40.1916 42.8747 40.1916 41.8713C40.1916 40.063 40.1916 40.0513 40.5416 39.4913C40.775 39.118 41.0666 38.838 41.405 38.6513C41.8833 38.4063 42.0583 38.383 43.7733 38.383H45.6166V37.648L45.605 36.9247L44.4733 36.3763C41.4166 34.9063 39.5266 32.0713 39.3516 28.6997C39.2116 25.9697 40.0866 23.7063 42.0583 21.758C43.0033 20.813 44.065 20.1013 45.0683 19.7397L45.6166 19.5413V10.4297C45.6166 5.41301 45.5816 1.15467 45.5466 0.944675C45.5 0.746342 45.3366 0.454674 45.1733 0.29134L44.8816 -0.000324249H31.6633H18.445L18.41 3.37134ZM36.9133 5.78634C37.0766 5.94967 37.1 6.77801 37.1 13.2297C37.1 18.713 37.065 20.5213 36.96 20.6263C36.8666 20.7197 36.295 20.7663 35.175 20.7663C34.055 20.7663 33.4833 20.7197 33.39 20.6263C33.285 20.5213 33.25 18.713 33.25 13.2297C33.25 6.77801 33.2733 5.94967 33.4366 5.78634C33.705 5.51801 36.645 5.51801 36.9133 5.78634ZM29.7966 9.47301C29.96 9.70634 29.9833 10.418 29.9833 14.9913C29.9833 19.5647 29.96 20.2763 29.7966 20.5097C29.6333 20.7547 29.54 20.7663 28 20.7663C26.46 20.7663 26.3666 20.7547 26.2033 20.5097C26.04 20.2763 26.0166 19.5647 26.0166 14.9913C26.0166 10.418 26.04 9.70634 26.2033 9.47301C26.3666 9.22801 26.46 9.21634 28 9.21634C29.54 9.21634 29.6333 9.22801 29.7966 9.47301ZM22.5516 12.938C22.7266 13.078 22.75 13.498 22.75 16.788C22.75 19.5063 22.715 20.5213 22.61 20.6263C22.4 20.8363 19.2033 20.8247 19.0283 20.603C18.935 20.498 18.9 19.378 18.9233 16.7297L18.9583 13.0197L19.25 12.868C19.6583 12.6463 22.2833 12.7047 22.5516 12.938ZM37.625 24.6747C37.975 25.013 37.9983 25.3513 37.6833 25.6663C37.45 25.8997 37.2983 25.8997 28 25.8997C18.7016 25.8997 18.55 25.8997 18.3166 25.6663C18.0016 25.3513 18.025 25.013 18.375 24.6747L18.655 24.383H28H37.345L37.625 24.6747ZM28.49 28.6647C28.7 28.8513 28.77 29.353 28.6066 29.5863C28.3616 29.9597 27.9883 29.983 23.3333 29.983H18.655L18.375 29.6913C18.025 29.353 18.0016 29.0147 18.3166 28.6997C18.5383 28.478 18.7016 28.4663 23.415 28.4663C27.7666 28.4663 28.2916 28.4897 28.49 28.6647Z" fill="#9D9D9D"/>
<path d="M14.0236 3.53518C12.5419 5.01684 11.3169 6.28851 11.3169 6.33518C11.3169 6.38184 12.5652 6.40518 14.0936 6.39351L16.8586 6.35851L16.8936 3.58184C16.9052 2.06518 16.8819 0.816844 16.8352 0.816844C16.7769 0.816844 15.5169 2.04184 14.0236 3.53518Z" fill="#9D9D9D"/>
<path d="M47.5999 20.6611C44.4615 20.9178 41.7082 23.3794 41.0082 26.5528C40.7515 27.6961 40.8215 29.4811 41.1715 30.5661C42.1282 33.5528 44.8582 35.6411 48.0199 35.7928C51.1932 35.9444 53.8882 34.3578 55.2999 31.5228C55.7899 30.5311 55.9999 29.5394 55.9999 28.1744C55.9999 26.0628 55.3932 24.5344 53.9699 23.0178C52.2432 21.1861 50.2365 20.4511 47.5999 20.6611ZM48.8599 22.9361C49.0349 23.0528 49.1165 23.2278 49.1165 23.5078C49.1165 23.8811 49.1632 23.9278 49.7582 24.2078C50.4465 24.5344 50.9832 25.0828 50.9832 25.4444C50.9832 25.5728 50.8549 25.8061 50.6915 25.9694C50.3532 26.3078 50.0849 26.2728 49.5482 25.8294C49.1049 25.4561 48.5099 25.3044 48.0082 25.4444C47.5415 25.5728 47.1332 26.0394 47.1332 26.4478C47.1332 26.8794 47.6932 27.3694 48.3115 27.4628C49.3265 27.6144 49.8165 27.8011 50.2949 28.2094C51.7065 29.4228 51.4149 31.4411 49.7115 32.3044C49.3382 32.5028 49.2332 32.6194 49.2332 32.8528C49.2332 33.1678 48.7665 33.7161 48.4982 33.7161C48.1715 33.7161 47.7165 33.2378 47.7165 32.8994C47.7165 32.6428 47.6349 32.5494 47.3432 32.4211C46.8182 32.2111 45.9665 31.4061 45.9665 31.1261C45.9665 30.8578 46.4682 30.3328 46.7365 30.3328C46.8415 30.3328 47.1215 30.4961 47.3665 30.6828C47.9032 31.1144 48.3815 31.2194 48.9299 31.0328C49.6999 30.7878 49.9332 30.0411 49.4315 29.4578C49.2215 29.2128 48.9882 29.1194 48.2532 28.9911C46.8532 28.7461 46.0249 28.0694 45.7215 26.9378C45.4415 25.8994 46.0832 24.6861 47.1682 24.1728C47.6115 23.9628 47.6815 23.8811 47.6815 23.5778C47.6815 22.8778 48.2999 22.5394 48.8599 22.9361Z" fill="#9D9D9D"/>
<path d="M11.2584 34.0545C11.0717 34.1712 10.0567 35.1395 9.01837 36.1895C7.16337 38.0679 7.1167 38.1145 7.1167 38.6045C7.1167 38.8729 7.17503 39.2112 7.24503 39.3512C7.42003 39.7012 8.0617 40.3662 8.22503 40.3662C8.28337 40.3662 9.54337 39.1645 11.025 37.6829L13.6967 34.9995L13.3 34.5795C12.5534 33.8095 11.9117 33.6462 11.2584 34.0545Z" fill="#9D9D9D"/>
<path d="M12.0167 38.792L9.275 41.5337L9.95167 42.1987L10.6167 42.8753L5.30833 48.1837L0 53.5037V54.192C0 55.4637 0.641667 56.0703 1.89 55.977L2.57833 55.9303L7.85167 50.657L13.125 45.3837L13.8017 46.0487L14.4667 46.7253L17.2083 43.9837L19.95 41.242L17.3483 38.6403L14.7583 36.0503L12.0167 38.792Z" fill="#9D9D9D"/>
<path d="M41.8832 40.1334C41.6732 40.3434 41.6499 40.5184 41.6499 41.9184C41.6499 43.1317 41.6849 43.5167 41.8366 43.7267L42.0116 43.9834H48.4049C54.4482 43.9834 54.8099 43.9717 54.9849 43.7734C55.2649 43.4701 55.2766 40.5534 54.9966 40.1567L54.8216 39.9001H48.4632C42.2682 39.9001 42.1166 39.9001 41.8832 40.1334Z" fill="#9D9D9D"/>
<path d="M18.2816 45.0105C16.8233 46.4688 15.6333 47.7171 15.6333 47.7871C15.6333 47.9388 16.31 48.5805 16.6483 48.7555C16.7883 48.8255 17.1266 48.8838 17.395 48.8838C17.885 48.8838 17.9316 48.8371 19.8683 46.9238C20.9533 45.8505 21.91 44.8355 22.0033 44.6605C22.2016 44.2871 22.2133 43.8321 22.0383 43.4821C21.8983 43.2138 21.1166 42.3505 21 42.3505C20.965 42.3505 19.74 43.5405 18.2816 45.0105Z" fill="#9D9D9D"/>
<path d="M41.8832 45.7563C41.6732 45.9897 41.6499 46.1647 41.6499 47.5413C41.6499 48.7313 41.6849 49.1163 41.8366 49.3263L42.0116 49.583H48.4049C54.4482 49.583 54.8099 49.5713 54.9849 49.373C55.1482 49.198 55.1832 48.883 55.1832 47.5647C55.1832 46.118 55.1599 45.943 54.9499 45.733C54.7166 45.4997 54.5649 45.4997 48.4166 45.4997H42.1282L41.8832 45.7563Z" fill="#9D9D9D"/>
<path d="M41.9532 51.3453C41.6499 51.5786 41.6499 51.6019 41.6499 53.1303C41.6499 54.3319 41.6849 54.7169 41.8366 54.9269L42.0116 55.1836H48.4049C54.4482 55.1836 54.8099 55.1719 54.9849 54.9736C55.1482 54.7986 55.1832 54.4836 55.1832 53.1653C55.1832 51.7186 55.1599 51.5436 54.9499 51.3336C54.7166 51.1003 54.5649 51.1003 48.4866 51.1003C42.3732 51.1003 42.2566 51.1003 41.9532 51.3453Z" fill="#9D9D9D"/>
<path d="M12.2501 53.34C11.5735 53.8067 11.3868 54.1683 11.3401 55.1367L11.2935 56H18.7835H26.2851L26.2268 55.195C26.1568 54.2617 25.9001 53.7367 25.3168 53.3517L24.9318 53.0833H18.7835H12.6351L12.2501 53.34Z" fill="#9D9D9D"/>
</svg>
