<svg width="56" height="56" viewBox="0 0 56 56" fill="none" xmlns="http://www.w3.org/2000/svg">
<path d="M13.3471 0.315904C12.8104 2.74257 11.3521 4.70257 9.31044 5.71758C8.75044 5.98591 8.0271 6.27758 7.6771 6.34758L7.05877 6.48758L7.02377 7.50258L6.98877 8.51758H18.6671H30.3338V7.52591C30.3338 6.54591 30.3338 6.53424 30.0188 6.46424C26.8455 5.78758 24.5705 3.51257 23.8705 0.315904L23.8005 0.00090313H18.6088H13.4171L13.3471 0.315904Z" fill="#9D9D9D"/>
<path d="M0 31.2666V56H18.3167H36.6334V50.6917C36.6334 46.0483 36.6567 45.3833 36.8084 45.3833C37.065 45.3833 37.0184 45.2317 36.68 44.905C36.5167 44.7533 35.9684 44.1233 35.4667 43.505C31.29 38.325 29.05 31.9433 29.05 25.235C29.05 23.5433 29.0617 23.45 29.33 23.135C29.5167 22.925 30.835 22.2016 33.1217 21.0583L36.6334 19.3083V12.9266V6.53328H34.475H32.3167V8.17828C32.3167 9.12328 32.2584 9.91661 32.1884 10.0566C31.885 10.6283 32.165 10.6166 18.6084 10.6166C5.05167 10.6166 5.33167 10.6283 5.02834 10.0566C4.95834 9.91661 4.90001 9.12328 4.90001 8.17828V6.53328H2.45H0V31.2666ZM18.6084 16.135C18.7017 16.275 18.7834 16.5433 18.7834 16.73C18.7834 17.1266 18.1534 17.8033 14.0933 21.7116C10.7917 24.8966 11.1417 24.8033 9.35668 22.9483C6.33501 19.81 6.32334 19.7983 6.59167 19.1683C6.77834 18.7366 7.08167 18.55 7.58334 18.55C7.99168 18.55 7.89834 18.4683 9.89334 20.5683L11.0833 21.84L14.0933 18.9C15.7384 17.2783 17.2434 15.89 17.43 15.8083C17.85 15.6333 18.3517 15.7733 18.6084 16.135ZM18.5267 29.12C18.795 29.4233 18.8534 29.855 18.6784 30.205C18.6084 30.3216 16.9634 31.9666 15.0034 33.8683C11.8067 36.995 11.41 37.3333 11.06 37.3333C10.71 37.345 10.4883 37.1466 8.77334 35.385C7.72334 34.3 6.77834 33.3083 6.68501 33.1566C6.14834 32.375 6.96501 31.2666 7.80501 31.6166C7.98001 31.6866 8.76168 32.4216 9.54334 33.25C10.3367 34.09 11.025 34.7666 11.0833 34.7666C11.1417 34.7666 12.5417 33.4483 14.1867 31.8383C15.8434 30.2283 17.3017 28.8633 17.43 28.805C17.7917 28.665 18.2234 28.7816 18.5267 29.12ZM18.2 41.475C18.8417 41.8133 18.97 42.4667 18.4917 43.0267C18.34 43.2133 16.6834 44.8467 14.8284 46.655C11.795 49.6067 11.41 49.9333 11.06 49.9333C10.71 49.945 10.4883 49.7467 8.77334 47.985C7.72334 46.9117 6.77834 45.9083 6.68501 45.7567C6.14834 44.975 6.93001 43.9017 7.78168 44.2283C7.95668 44.2983 8.75001 45.0333 9.54334 45.8617C10.3367 46.69 11.0367 47.3667 11.095 47.3667C11.1533 47.3667 12.5533 46.0483 14.1983 44.4383C16.8934 41.8133 17.4417 41.335 17.7684 41.3116C17.815 41.3 18.0134 41.3816 18.2 41.475Z" fill="#9D9D9D"/>
<path d="M37.1932 21.2806L31.1499 24.3256V25.924C31.1499 29.7506 32.0599 33.5656 33.8799 37.2756C35.8399 41.254 38.6632 44.5906 42.2566 47.169L43.1899 47.834L43.7966 47.4023C47.4599 44.789 50.4466 41.2423 52.4416 37.159C54.2033 33.554 55.0783 30.1123 55.2649 26.0056L55.3349 24.419L53.4216 23.4273C52.3716 22.879 49.6416 21.4906 47.3666 20.324L43.2249 18.224L37.1932 21.2806ZM49.6999 27.9423C50.0966 28.1523 50.2833 28.444 50.2833 28.8756C50.2833 29.2606 49.8049 29.774 45.8266 33.6123C43.2366 36.1206 42.9099 36.4006 42.5599 36.4006C42.2216 36.4006 42.0232 36.249 41.0082 35.199C38.1966 32.329 38.0332 32.1423 38.0332 31.699C38.0332 31.4773 38.1382 31.174 38.2666 31.0106C38.7216 30.4273 39.4449 30.5556 40.1216 31.3373C40.3432 31.5823 40.9849 32.2823 41.5566 32.8773L42.5949 33.9506L45.6516 30.964C48.3933 28.2806 48.9416 27.8023 49.2683 27.779C49.3149 27.7673 49.5133 27.849 49.6999 27.9423Z" fill="#9D9D9D"/>
</svg>
