<svg width="58" height="58" viewBox="0 0 58 58" fill="none" xmlns="http://www.w3.org/2000/svg">
<path d="M45.4692 0.141951C45.3738 0.237345 45.3261 0.726238 45.3261 1.53709V2.80106L44.7776 3.02762C44.2171 3.25418 43.5971 3.94579 43.4659 4.49431L43.3944 4.76857H40.783H38.1835L37.8973 5.15014C37.7423 5.36478 36.8837 6.91493 35.9894 8.60818C34.2008 11.9589 34.1888 11.9827 34.5823 13.2229C34.9281 14.3318 35.6198 15.1546 36.681 15.7031C37.5515 16.1562 38.9228 16.2159 39.9006 15.8462C41.2599 15.3335 42.3689 13.9026 42.5478 12.4359C42.6074 11.8754 42.5597 11.7681 41.1645 9.16862C40.3775 7.69001 39.6979 6.39027 39.6502 6.27102C39.5786 6.10408 39.7575 6.08023 41.4626 6.08023H43.3586L43.5732 6.61683C43.8117 7.18919 44.3245 7.69001 44.9445 7.95234L45.3261 8.10736V13.7118V19.3162H43.6925C41.8681 19.3162 41.3792 19.4593 40.771 20.1032C40.3179 20.5921 40.1987 20.9975 40.1987 21.9991C40.1987 22.6788 40.2344 22.8815 40.3895 22.9411C40.4968 22.9769 43.0247 23.0127 46.0296 23.0127C50.1077 23.0127 51.5148 22.9769 51.6221 22.8696C51.8248 22.6669 51.801 21.2956 51.5863 20.7709C51.3359 20.1866 50.9663 19.8051 50.3939 19.5427C50.0004 19.3639 49.6188 19.3162 48.2237 19.3162H46.5185V13.7118V8.10736L46.912 7.95234C47.5202 7.69001 48.0329 7.18919 48.2714 6.61683L48.486 6.08023H50.382C52.0752 6.08023 52.266 6.10408 52.1945 6.27102C52.1468 6.37834 51.491 7.63039 50.7278 9.04938C49.4519 11.3985 49.3327 11.6727 49.3446 12.2212C49.3684 13.7237 50.5132 15.3096 51.9441 15.8462C52.8861 16.2039 54.2693 16.1562 55.1636 15.727C56.4037 15.1308 57.3696 13.7475 57.465 12.3882C57.5127 11.7204 57.5127 11.6966 55.8791 8.63203C54.9728 6.92686 54.1024 5.36478 53.9474 5.15014L53.6612 4.76857H51.0617H48.4741L48.3191 4.33929C48.1164 3.77885 47.3532 3.02762 46.8882 2.9203L46.5185 2.83683V1.56094C46.5185 0.189648 46.447 -0.00114059 45.9223 -0.00114059C45.7554 -0.00114059 45.5527 0.0584793 45.4692 0.141951ZM39.6502 9.109C40.2821 10.2895 40.771 11.2673 40.7472 11.2911C40.7233 11.315 39.6621 11.315 38.3862 11.3031L36.0609 11.2673L37.1461 9.24017C38.3146 7.05803 38.422 6.87916 38.4697 6.93878C38.4816 6.96263 39.0182 7.94042 39.6502 9.109ZM54.6747 9.20439L55.7837 11.2673L54.6032 11.3031C53.9593 11.315 52.898 11.315 52.2422 11.3031L51.0617 11.2673L52.2064 9.08515C52.9099 7.76156 53.3988 6.95071 53.4704 7.02225C53.53 7.08187 54.0785 8.05966 54.6747 9.20439Z" fill="#9D9D9D"/>
<path d="M7.03706 12.1974C6.75088 12.3525 6.35738 12.7102 6.15467 12.9844L5.79694 13.4972L5.76117 33.995C5.73732 56.3649 5.68962 54.7909 6.3693 55.5422L6.60779 55.8045H5.36767C4.55682 55.8045 4.06792 55.8522 3.97253 55.9476C3.79366 56.1264 3.79366 56.675 3.97253 56.8538C4.17524 57.0565 53.3271 57.0565 53.5298 56.8538C53.7086 56.675 53.7086 56.1264 53.5298 55.9476C53.4225 55.8403 51.9915 55.8045 47.8419 55.8045H42.309L42.5595 55.5302C43.2153 54.8386 43.1795 55.6495 43.1795 39.1701V23.9667H41.6294C39.9242 23.9667 39.6261 23.8713 39.2922 23.2393C39.0656 22.7862 39.0776 21.2957 39.3161 20.5921C39.7334 19.3639 41.0093 18.41 42.4164 18.2788L43.1795 18.2073V16.204C43.1795 15.095 43.1557 14.1888 43.1318 14.1888C43.108 14.1888 42.953 14.4154 42.786 14.7015C42.4164 15.3216 41.4624 16.2278 40.8424 16.5498C40.1865 16.8837 39.161 17.1699 38.6364 17.1699C38.386 17.1699 38.1475 17.2176 38.1117 17.2891C38.064 17.3726 33.3539 17.4083 24.3869 17.4083H10.7455L10.6024 17.0983C10.4713 16.8241 10.4832 16.7525 10.7336 16.5617C10.9959 16.3471 11.449 16.3352 23.2898 16.3352H35.5718L34.8564 15.572C34.0217 14.6777 33.5924 13.8311 33.4016 12.7221L33.2585 11.9232H20.4161H7.56173L7.03706 12.1974ZM38.1832 21.5938C38.3979 21.8084 38.4098 21.868 38.2548 22.0946L38.0879 22.3569L24.6254 22.3927C17.2204 22.4046 11.0436 22.3927 10.9005 22.3569C10.5428 22.2734 10.4355 21.8561 10.6978 21.5699C10.9005 21.3434 11.2225 21.3434 24.4226 21.3434H37.9328L38.1832 21.5938ZM38.2548 26.6735C38.4098 26.9001 38.3979 26.9597 38.1832 27.1743L37.9328 27.4247H24.4346C12.0453 27.4247 10.9244 27.4128 10.7217 27.222C10.4593 26.9835 10.4474 26.7808 10.6978 26.5423C10.8648 26.3635 12.236 26.3515 24.4823 26.3754L38.0879 26.4112L38.2548 26.6735ZM24.7923 31.5028C25.0189 31.7294 24.9592 32.0394 24.6731 32.2421C24.4346 32.4091 23.576 32.4329 17.7093 32.4329C11.3298 32.4329 10.9959 32.421 10.7336 32.2064C10.4832 32.0156 10.4713 31.944 10.6024 31.6698L10.7455 31.3597H17.6974C22.944 31.3597 24.685 31.3955 24.7923 31.5028ZM36.025 43.7014V50.2001H37.0981C38.0402 50.2001 38.1832 50.2239 38.2906 50.4386C38.386 50.6055 38.386 50.7486 38.2906 50.9155C38.1594 51.154 38.0402 51.154 24.4703 51.154C9.48154 51.154 10.2924 51.1898 10.6024 50.4982C10.7336 50.212 10.7932 50.2001 11.7591 50.2001H12.7726V47.9464C12.7726 46.1697 12.8084 45.6689 12.9396 45.5615C13.0469 45.4661 13.655 45.4304 14.8117 45.4542L16.5288 45.49L16.5646 47.8391L16.5884 50.2001H17.9597H19.331L19.3548 44.9773L19.3906 39.7663H21.1792H22.9679L23.0037 44.9773L23.0275 50.2001H24.3988H25.7701V47.0044C25.7701 45.2515 25.8178 43.7491 25.8655 43.6656C25.9489 43.5583 26.4021 43.5225 27.7495 43.5463L29.5262 43.5821L29.562 46.8851L29.5858 50.2001H30.9571H32.3284V43.7014V37.2026H34.1767H36.025V43.7014Z" fill="#9D9D9D"/>
<path d="M0.634148 55.9477C0.455284 56.1266 0.455284 56.6751 0.634148 56.854C0.824936 57.0448 2.30355 57.0448 2.49433 56.854C2.6732 56.6751 2.6732 56.1266 2.49433 55.9477C2.30355 55.7569 0.824936 55.7569 0.634148 55.9477Z" fill="#9D9D9D"/>
<path d="M54.8892 55.9477C54.8057 56.0312 54.7461 56.2339 54.7461 56.4009C54.7461 56.9136 54.9488 56.9971 56.1174 56.9971C57.286 56.9971 57.4887 56.9136 57.4887 56.4009C57.4887 56.2339 57.4291 56.0312 57.3456 55.9477C57.1548 55.7569 55.08 55.7569 54.8892 55.9477Z" fill="#9D9D9D"/>
</svg>
