<svg width="49" height="59" viewBox="0 0 49 59" fill="none" xmlns="http://www.w3.org/2000/svg">
<path d="M6.60161 0.228516C6.24614 0.355469 5.73833 0.736328 5.2686 1.20605C3.94829 2.51367 4.06255 0.368164 4.06255 23.499V43.6719H16.25H28.4375V40.1172V36.5625H23.8672H19.2969V35.5469V34.5312H23.8545H28.3995L28.4883 33.6807C28.6407 32.2461 29.1612 31.3955 30.2784 30.8115C30.7608 30.5449 30.9893 30.5322 34.6963 30.4941L38.5938 30.4434V17.0371C38.5938 9.36914 38.6573 3.21191 38.7208 2.66602C38.8096 2.00586 38.9747 1.44727 39.2793 0.850586L39.711 0L23.4483 0.0126953C8.55669 0.0126953 7.12212 0.0380859 6.60161 0.228516ZM24.1846 2.53906C27.003 3.41504 29.212 5.34473 30.4434 7.99805C31.1036 9.40723 31.3575 10.5879 31.3575 12.2256C31.3575 16.0469 29.2374 19.4619 25.835 21.1504C24.2862 21.9121 23.0166 22.2168 21.3663 22.2168C19.7286 22.2168 18.5479 21.9629 17.1387 21.3027C14.9932 20.3125 13.4063 18.7764 12.3653 16.6943C11.6036 15.1455 11.2989 13.876 11.2989 12.2256C11.2989 10.499 11.5655 9.36914 12.3145 7.80762C13.3809 5.62402 14.7647 4.24023 16.9483 3.17383C19.2969 2.03125 21.8106 1.81543 24.1846 2.53906ZM13.4571 23.499C14.1426 23.7402 14.2188 24.1084 14.2188 27.3965C14.2188 30.6846 14.1553 31.04 13.5079 31.3066C12.8985 31.5605 7.41411 31.5605 6.80473 31.3066C6.15727 31.04 6.0938 30.6846 6.0938 27.4219C6.0938 24.1973 6.15727 23.8037 6.77934 23.5371C7.28716 23.3213 12.8223 23.2832 13.4571 23.499ZM34.5313 25.3906V26.4062H26.4063H18.2813V25.3906V24.375H26.4063H34.5313V25.3906ZM27.4219 29.4531V30.4688H21.836H16.25V29.4531V28.4375H21.836H27.4219V29.4531ZM13.4571 33.6553C14.1426 33.8965 14.2188 34.2646 14.2188 37.5527C14.2188 40.8408 14.1553 41.1963 13.5079 41.4629C12.8985 41.7168 7.41411 41.7168 6.80473 41.4629C6.15727 41.1963 6.0938 40.8408 6.0938 37.5781C6.0938 34.3535 6.15727 33.96 6.77934 33.6934C7.28716 33.4775 12.8223 33.4395 13.4571 33.6553ZM26.4063 39.6094V40.625H20.8204H15.2344V39.6094V38.5938H20.8204H26.4063V39.6094Z" fill="#9D9D9D"/>
<path d="M19.1066 4.30347C16.2628 5.12866 14.0538 7.41382 13.3937 10.1814C13.1398 11.2478 13.1525 13.2791 13.4064 14.2693C14.13 17.0623 16.5548 19.4744 19.3097 20.1218C20.3507 20.363 22.3058 20.363 23.3341 20.1218C26.1525 19.4617 28.5138 17.113 29.2501 14.2566C29.504 13.2791 29.504 11.2351 29.2628 10.1687C28.6027 7.38843 26.1271 4.91284 23.3468 4.25269C22.2296 3.99878 20.0841 4.02417 19.1066 4.30347ZM19.2716 7.48999C20.922 8.49292 20.2111 11.0447 18.2814 11.0447C17.2023 11.0447 16.3771 10.2195 16.3771 9.14038C16.3771 8.45483 16.7198 7.84546 17.2911 7.48999C17.545 7.33765 17.9386 7.23608 18.2814 7.23608C18.6241 7.23608 19.0177 7.33765 19.2716 7.48999ZM22.0011 12.8474L17.964 16.8845L17.3038 16.2244L16.631 15.5515L20.6554 11.5271L24.6925 7.48999L25.3527 8.15015L26.0255 8.823L22.0011 12.8474ZM25.3654 13.5837C27.0157 14.5867 26.3048 17.1384 24.3751 17.1384C23.296 17.1384 22.4708 16.3132 22.4708 15.2341C22.4708 14.5486 22.8136 13.9392 23.3849 13.5837C23.6388 13.4314 24.0323 13.3298 24.3751 13.3298C24.7179 13.3298 25.1114 13.4314 25.3654 13.5837Z" fill="#9D9D9D"/>
<path d="M8.125 27.4219V29.4531H10.1562H12.1875V27.4219V25.3906H10.1562H8.125V27.4219Z" fill="#9D9D9D"/>
<path d="M8.125 37.5781V39.6094H10.1562H12.1875V37.5781V35.5469H10.1562H8.125V37.5781Z" fill="#9D9D9D"/>
<path d="M42.4658 0.177734C41.8438 0.444335 41.2725 1.00293 40.9424 1.66309C40.6377 2.24707 40.625 2.37402 40.625 4.69727V7.10938H43.6719H46.7188V4.65918C46.7188 2.55176 46.6807 2.1582 46.4775 1.71387C46.1855 1.0918 45.5381 0.457031 44.916 0.203124C44.3447 -0.0380865 42.9863 -0.0507818 42.4658 0.177734Z" fill="#9D9D9D"/>
<path d="M30.7227 32.7539C30.4814 32.9951 30.4688 33.1729 30.4688 35.8008V38.5938H39.6094H48.75V35.8008C48.75 33.1729 48.7373 32.9951 48.4961 32.7539C48.2422 32.5 48.0771 32.5 39.6094 32.5C31.1416 32.5 30.9766 32.5 30.7227 32.7539Z" fill="#9D9D9D"/>
<path d="M30.4688 49.5117C30.4688 58.2334 30.4688 58.3984 30.7227 58.6523C30.9766 58.9062 31.1416 58.9062 39.6094 58.9062C48.0771 58.9062 48.2422 58.9062 48.4961 58.6523C48.75 58.3984 48.75 58.2334 48.75 49.5117V40.625H39.6094H30.4688V49.5117ZM35.5469 43.6719V44.6875H34.0234H32.5V43.6719V42.6562H34.0234H35.5469V43.6719ZM41.6406 43.6719V44.6875H39.6094H37.5781V43.6719V42.6562H39.6094H41.6406V43.6719ZM46.7188 43.6719V44.6875H45.1953H43.6719V43.6719V42.6562H45.1953H46.7188V43.6719ZM35.5469 47.7344V48.75H34.0234H32.5V47.7344V46.7188H34.0234H35.5469V47.7344ZM41.6406 47.7344V48.75H39.6094H37.5781V47.7344V46.7188H39.6094H41.6406V47.7344ZM46.7188 47.7344V48.75H45.1953H43.6719V47.7344V46.7188H45.1953H46.7188V47.7344ZM35.5469 51.7969V52.8125H34.0234H32.5V51.7969V50.7812H34.0234H35.5469V51.7969ZM41.6406 51.7969V52.8125H39.6094H37.5781V51.7969V50.7812H39.6094H41.6406V51.7969ZM46.7188 51.7969V52.8125H45.1953H43.6719V51.7969V50.7812H45.1953H46.7188V51.7969ZM35.5469 55.8594V56.875H34.0234H32.5V55.8594V54.8438H34.0234H35.5469V55.8594ZM41.6406 55.8594V56.875H39.6094H37.5781V55.8594V54.8438H39.6094H41.6406V55.8594ZM46.7188 55.8594V56.875H45.1953H43.6719V55.8594V54.8438H45.1953H46.7188V55.8594Z" fill="#9D9D9D"/>
<path d="M0 47.1254C0 48.7504 0.177734 49.2963 0.901367 49.9818C1.80273 50.8324 0.926758 50.7816 15.3613 50.7816H28.4375V48.2426V45.7035H14.2188H0V47.1254Z" fill="#9D9D9D"/>
</svg>
