<svg width="57" height="57" viewBox="0 0 57 57" fill="none" xmlns="http://www.w3.org/2000/svg">
<path d="M18.5402 0.149675C14.348 1.08259 11.1123 4.11753 9.90775 8.25071C9.63614 9.19544 9.459 12.0887 9.61252 13.1279C9.69518 13.6357 9.70699 13.6593 9.99041 13.553C10.1557 13.4821 10.5218 13.4349 10.8052 13.4349C11.2658 13.4349 11.3839 13.3759 11.9507 12.809C12.6829 12.065 13.6158 11.5809 14.596 11.4274C14.9738 11.3565 16.261 11.3093 17.4538 11.3093C20.158 11.3093 20.347 11.2266 21.1028 9.77408C21.5279 8.95925 22.0475 8.59317 22.7915 8.59317C23.5354 8.59317 24.055 8.95925 24.5038 9.7977C25.1533 11.0258 25.3895 11.1794 26.842 11.3801C28.141 11.5573 29.0267 11.9706 29.8533 12.809C30.3847 13.3404 30.55 13.4349 30.9161 13.4349C31.1641 13.4349 31.5302 13.4821 31.7309 13.5412L32.1088 13.6475L32.1915 13.1279C32.345 12.0887 32.1679 9.19544 31.8963 8.25071C30.7626 4.37733 27.8339 1.44867 23.9606 0.315002C22.8151 -0.0156517 19.7211 -0.110125 18.5402 0.149675Z" fill="#9D9D9D"/>
<path d="M22.319 11.0968C21.9057 11.8171 21.3034 12.3958 20.5476 12.7973C20.1934 12.9862 19.7564 13.0335 17.3592 13.0807C14.2062 13.1634 13.8755 13.2342 13.0961 14.1081C12.3994 14.8875 12.3403 15.1827 12.3403 18.1586C12.3521 21.2998 12.482 22.0792 13.3205 23.7443C14.3597 25.8345 16.4381 27.4996 18.729 28.0782C19.969 28.3971 21.8348 28.3971 23.0748 28.0782C25.3658 27.4996 27.4442 25.8345 28.4834 23.7443C29.3218 22.0792 29.4517 21.2998 29.4635 18.1586C29.4635 15.1827 29.4045 14.8875 28.7077 14.1081C28.1645 13.5058 27.5504 13.2342 26.5112 13.1279C25.0115 12.9862 23.9723 12.3367 23.2637 11.0968C23.0394 10.6953 22.8268 10.3764 22.7914 10.3764C22.7559 10.3764 22.5434 10.6953 22.319 11.0968Z" fill="#9D9D9D"/>
<path d="M9.88419 15.5485C9.54173 15.7729 9.21108 16.1272 8.97489 16.5287C8.62062 17.1191 8.60881 17.2018 8.64424 18.2174C8.70329 19.5754 9.04575 20.3666 9.97867 21.2995C10.3447 21.6656 10.6636 21.9372 10.6872 21.9136C10.7226 21.89 10.6872 21.2287 10.6164 20.4493C10.5455 19.6817 10.5101 18.1819 10.5337 17.1191C10.5691 16.0681 10.5573 15.206 10.5219 15.206C10.4746 15.206 10.1912 15.3596 9.88419 15.5485Z" fill="#9D9D9D"/>
<path d="M31.2589 17.0599C31.2944 18.0873 31.2589 19.587 31.1881 20.3901C31.1172 21.2049 31.0818 21.878 31.1054 21.9016C31.129 21.9252 31.4125 21.7009 31.7431 21.4056C32.7705 20.4845 33.42 18.7132 33.1838 17.4496C33.0539 16.741 32.5107 15.938 31.9084 15.5483C31.6132 15.3594 31.3298 15.2059 31.2826 15.2059C31.2471 15.2059 31.2353 16.0443 31.2589 17.0599Z" fill="#9D9D9D"/>
<path d="M16.781 29.3654C16.781 29.4362 20.7252 32.7191 20.8787 32.7782C20.9732 32.8018 24.9529 29.5307 25.0119 29.3654C25.0355 29.3181 24.6931 29.389 24.2443 29.5425C22.9217 30.0031 22.1069 30.1211 20.4654 30.0621C19.19 30.0149 18.7767 29.944 17.8674 29.6488C17.2651 29.448 16.7692 29.3181 16.781 29.3654Z" fill="#9D9D9D"/>
<path d="M10.6282 30.4632C10.5692 30.6167 10.3094 31.8212 10.0378 33.1438L9.56543 35.5647L10.9235 36.9346C12.0335 38.0682 12.2815 38.3753 12.2815 38.6587C12.2815 38.8594 12.1044 39.7569 11.88 40.6544L11.4785 42.2959L12.4941 43.6067C17.076 49.4522 18.4813 51.2117 18.5167 51.1291C18.5285 51.0818 17.2413 46.807 15.6589 41.6464C14.0765 36.4976 12.6358 31.8094 12.4587 31.2308L12.1516 30.2034H11.4431C10.829 30.2034 10.7227 30.2388 10.6282 30.4632Z" fill="#9D9D9D"/>
<path d="M29.6405 30.2506C29.6405 30.2742 28.1998 34.9624 26.452 40.6662C24.6925 46.37 23.2754 51.07 23.2872 51.1291C23.3226 51.2117 24.7279 49.4522 29.3098 43.6067L30.3372 42.2959L29.9357 40.7017C29.3334 38.3516 29.2862 38.5524 30.8804 36.9346L32.2385 35.5647L31.7661 33.1438C31.4945 31.8212 31.2347 30.6167 31.1757 30.4632C31.0812 30.2388 30.9749 30.2034 30.349 30.2034C29.9593 30.2034 29.6405 30.227 29.6405 30.2506Z" fill="#9D9D9D"/>
<path d="M14.8442 30.8885C14.608 31.1365 14.4072 31.4081 14.4072 31.4908C14.4072 31.6089 15.8243 36.3325 15.8952 36.4388C15.9542 36.5333 19.3552 34.0297 19.3316 33.9117C19.3198 33.8054 16.6037 31.479 15.4582 30.5933C15.3047 30.4752 15.1984 30.5224 14.8442 30.8885Z" fill="#9D9D9D"/>
<path d="M24.5035 32.1049C23.3934 33.026 22.4841 33.829 22.4723 33.9117C22.4487 34.0297 25.8497 36.5333 25.9087 36.4388C25.9914 36.3207 27.3967 31.6089 27.3967 31.479C27.3967 31.3845 27.1959 31.1129 26.9479 30.8767L26.4992 30.4398L24.5035 32.1049Z" fill="#9D9D9D"/>
<path d="M7.97113 30.9715C4.38117 32.3295 1.60604 35.3527 0.531409 39.1079C0.0826636 40.6904 0 42.1901 0 49.2283C0 55.8769 0.0236182 56.302 0.472363 56.5382C0.602263 56.609 1.98393 56.6562 3.7671 56.6562H6.84927V52.1924C6.84927 47.8585 6.86108 47.7168 7.08545 47.5042C7.41611 47.209 7.98294 47.2326 8.30179 47.5514C8.56159 47.7994 8.56159 47.8585 8.59701 52.2278L8.63244 56.6562L14.7377 56.6444C18.0915 56.6326 20.7486 56.609 20.6423 56.5736C20.477 56.5264 16.5209 51.5783 10.5927 43.9851C9.8842 43.0876 9.68345 42.7451 9.68345 42.4499C9.68345 42.2374 9.87239 41.3753 10.085 40.5368L10.4747 39.0017L9.14023 37.6318C8.03018 36.5099 7.794 36.2029 7.794 35.9077C7.794 35.7187 8.00656 34.5024 8.26636 33.2152C8.52616 31.9162 8.72691 30.818 8.7151 30.7825C8.69149 30.7353 8.36083 30.818 7.97113 30.9715Z" fill="#9D9D9D"/>
<path d="M33.1011 30.8998C33.1247 31.0179 33.3609 32.1988 33.6089 33.4978C34.0458 35.8006 34.0694 35.8832 34.3646 35.9423C34.53 35.9777 35.0614 36.1903 35.5456 36.4147C36.7265 36.9461 37.4586 36.9579 38.7104 36.4501C39.2182 36.2611 39.6669 36.0486 39.726 35.9895C39.9031 35.8124 39.0883 34.726 38.0018 33.6749C36.6084 32.3169 35.4629 31.5729 33.7978 30.947C33.0656 30.6754 33.042 30.6754 33.1011 30.8998Z" fill="#9D9D9D"/>
<path d="M44.2253 33.9585C43.6702 34.0766 43.5758 34.301 43.5758 35.5764V36.7927L42.9145 36.8754C41.9933 36.9817 41.2612 37.2178 39.6197 37.9146C38.3443 38.4578 38.0963 38.5168 37.1398 38.5641C36.077 38.6113 36.077 38.6113 35.1441 38.1271C34.282 37.6666 34.1875 37.643 33.8096 37.7729C33.5144 37.8673 33.3491 38.0209 33.231 38.3161C33.0775 38.6822 33.0775 38.7648 33.2664 39.1545C33.4318 39.5088 33.6561 39.6859 34.3647 40.0284C34.8488 40.2764 35.2976 40.489 35.3448 40.5126C35.4039 40.5244 34.7189 42.1895 33.8333 44.197C32.3453 47.539 32.2154 47.8933 32.2272 48.4955C32.2627 50.4204 33.5971 52.1918 35.3921 52.7114C36.4076 53.0066 38.2381 52.9003 39.1119 52.4988C40.6235 51.8021 41.5682 50.4086 41.6627 48.7317L41.7099 47.8342L40.1039 44.197C39.2182 42.2013 38.4979 40.5598 38.5215 40.5362C38.5451 40.5244 38.7931 40.4299 39.0883 40.3236C39.3835 40.2292 40.1511 39.9221 40.8006 39.6505C42.3594 39.0128 43.1624 38.8239 44.5205 38.8239C45.8903 38.8239 46.5753 38.9892 48.6655 39.8277C49.5393 40.1819 50.3306 40.4772 50.4014 40.4772C50.4841 40.4772 50.5431 40.5008 50.5431 40.5362C50.5431 40.5716 49.8936 42.036 49.1142 43.8073C47.1657 48.1767 47.2484 47.9287 47.3665 48.9088C47.6027 50.7747 48.7599 52.18 50.5195 52.7114C51.2517 52.9357 52.9167 52.9357 53.6961 52.6996C55.0306 52.298 56.1406 51.188 56.5658 49.8181C57.0263 48.3538 56.9909 48.2121 55.2077 44.1852C54.3338 42.2013 53.6135 40.5716 53.6135 40.548C53.6135 40.5244 53.8497 40.4181 54.1213 40.3118C55.0542 39.9576 55.7155 39.4616 55.8336 39.0364C55.9871 38.4578 55.7864 38.0091 55.3022 37.7965C54.9361 37.643 54.8534 37.6548 54.4637 37.8673C52.5979 38.8711 51.724 38.8829 49.3622 37.891C47.768 37.2178 47.0358 36.9817 46.1265 36.8754L45.4652 36.7927V35.6472C45.4652 34.9151 45.4062 34.4309 45.3235 34.301C45.1464 34.0648 44.5677 33.8877 44.2253 33.9585ZM38.1082 44.7048L39.1946 47.1493L38.0727 47.1847C37.4587 47.1965 36.4667 47.1965 35.8526 47.1847L34.7426 47.1493L35.829 44.7048C36.4195 43.3586 36.9272 42.2485 36.9627 42.2485C36.9981 42.2485 37.5059 43.3468 38.1082 44.7048ZM53.2356 44.7875L54.2866 47.1493L53.1765 47.1847C52.5743 47.1965 51.5823 47.1965 50.9682 47.1847L49.87 47.1493L50.9446 44.7048C51.5351 43.3586 52.0547 42.2958 52.1019 42.343C52.1492 42.3902 52.6569 43.4885 53.2356 44.7875Z" fill="#9D9D9D"/>
<path d="M19.5439 36.0132C18.8354 36.5328 18.1387 37.0288 18.0206 37.1232C17.808 37.265 17.8316 37.3358 18.5284 38.3986C18.9417 39.0127 19.3432 39.5441 19.4495 39.5795C19.5439 39.615 20.1934 39.6504 20.902 39.6504C21.6105 39.6504 22.26 39.615 22.3545 39.5795C22.5434 39.5087 24.0432 37.3122 23.9605 37.2413C23.807 37.1114 20.8902 35.0448 20.8666 35.0567C20.8548 35.0567 20.2643 35.4936 19.5439 36.0132Z" fill="#9D9D9D"/>
<path d="M31.6484 40.159C31.6484 40.2298 31.7546 40.7022 31.8845 41.1863C32.2624 42.6034 32.2388 42.6743 31.2114 43.9851C25.4486 51.3658 21.6461 56.1721 21.4099 56.3846L21.1265 56.6562H26.6767H32.2388V54.7078V52.7593L31.8019 52.2042C30.9398 51.0706 30.4084 49.3819 30.4911 48.0356C30.5383 47.3625 30.7154 46.8901 31.8609 44.3158C33.0418 41.6705 33.1599 41.3635 32.971 41.2572C32.8647 41.1982 32.5222 40.8911 32.2152 40.5841C31.8964 40.2652 31.6484 40.0763 31.6484 40.159Z" fill="#9D9D9D"/>
<path d="M43.5756 47.61V54.7663H41.4027H39.218L38.9819 55.0734C38.663 55.4867 38.663 55.9827 39.0055 56.3488L39.2653 56.644L44.4967 56.6794L49.7399 56.7148L50.0352 56.3724C50.2714 56.089 50.3186 55.9473 50.2595 55.6048C50.1415 54.8254 49.9643 54.7663 47.5789 54.7663H45.4651V47.6809V40.5954H44.7919C44.414 40.5954 43.9889 40.56 43.8472 40.5246L43.5756 40.4537V47.61Z" fill="#9D9D9D"/>
<path d="M18.4932 41.4337C18.4578 41.5872 18.3515 42.1541 18.2688 42.6737L18.1035 43.642L19.4734 48.0822C20.2173 50.5267 20.8668 52.5225 20.9023 52.5225C20.9377 52.5225 21.5872 50.5267 22.3312 48.0822L23.701 43.642L23.5003 42.4729C23.394 41.8234 23.2641 41.2684 23.2287 41.233C23.1932 41.1857 22.9807 41.2212 22.7681 41.292C21.8942 41.6109 20.0166 41.5754 18.8121 41.233C18.5995 41.1739 18.5405 41.2212 18.4932 41.4337Z" fill="#9D9D9D"/>
<path d="M40.8594 41.5284C40.8594 41.7409 41.6033 43.3115 41.7096 43.3115C41.7805 43.3115 41.7923 43.0163 41.7451 42.6266C41.6152 41.4693 41.6033 41.4221 41.2136 41.4221C41.0129 41.4221 40.8594 41.4693 40.8594 41.5284Z" fill="#9D9D9D"/>
<path d="M34.0103 55.3454V56.6562H35.5336H37.0688L36.998 56.0068C36.9507 55.5226 36.9743 55.2864 37.1279 55.0738C37.2341 54.9085 37.3168 54.7432 37.3168 54.7078C37.3168 54.6723 37.0098 54.6487 36.6319 54.6487C36.0414 54.6487 34.8487 54.3889 34.2228 54.1173C34.0221 54.0346 34.0103 54.1409 34.0103 55.3454Z" fill="#9D9D9D"/>
</svg>
