<svg width="57" height="56" viewBox="0 0 57 56" fill="none" xmlns="http://www.w3.org/2000/svg">
<path d="M1.57595 0.221668C1.00429 0.490002 0.420957 1.085 0.187625 1.65666C0.024292 2.04166 0.000958796 4.85332 0.000958796 27.9999C0.000958796 56.6181 -0.0573743 54.3315 0.735956 55.1715C1.56429 56.0348 1.06262 55.9998 10.4426 55.9998H18.8426V53.9815C18.8426 52.0332 18.8542 51.9515 19.1576 51.3332C19.5659 50.4932 20.1609 49.8165 20.8609 49.3615L21.4326 48.9998L21.5026 48.0082C21.5842 46.8648 21.8409 46.1882 22.4125 45.6515C23.2292 44.8815 23.3342 44.8698 27.6392 44.8232L31.5359 44.7882L27.2659 40.5065C24.1042 37.3332 22.9375 36.0849 22.7625 35.6999C22.4592 35.0232 22.4475 34.0549 22.7392 33.4016C23.0659 32.7016 26.1459 29.5982 26.8342 29.2949C27.4175 29.0266 28.3392 28.9799 28.9109 29.1782C29.2842 29.3066 29.2842 29.3066 31.6175 27.0432C33.6825 25.0599 33.9508 24.7566 33.8925 24.4999C33.8575 24.3366 33.7992 23.9049 33.7525 23.5433C33.6358 22.3883 33.8575 22.0033 35.8058 20.0549C37.6842 18.1766 38.1858 17.8383 39.1308 17.8266C39.7375 17.8149 40.7175 18.1533 40.8808 18.4216C41.1492 18.8416 41.1842 18.2349 41.1842 13.8833V9.21664H37.5675C33.5658 9.21664 33.4375 9.19331 32.6792 8.48164C31.8742 7.72331 31.8509 7.58331 31.8509 3.58165V0H16.9526C2.67262 0 2.01929 0.0116692 1.57595 0.221668ZM27.6392 7.74664C27.9775 8.04997 27.9775 8.74997 27.6392 9.05331C27.4059 9.26331 27.1025 9.27497 19.4842 9.27497C11.8659 9.27497 11.5626 9.26331 11.3293 9.05331C10.8393 8.60997 11.0726 7.71164 11.7259 7.54831C11.8543 7.51331 15.4359 7.50164 19.6709 7.51331C27.0909 7.52497 27.4059 7.53664 27.6392 7.74664ZM35.1058 13.3466C35.4442 13.65 35.4442 14.35 35.1058 14.6533C34.8608 14.8633 34.4525 14.875 20.5109 14.875H6.16094L5.88094 14.5483C5.72927 14.3733 5.60094 14.1283 5.60094 14.0116C5.60094 13.7083 6.02094 13.2066 6.33594 13.1483C6.47594 13.125 12.9509 13.1016 20.7209 13.1133C34.4525 13.125 34.8725 13.1366 35.1058 13.3466ZM10.8393 18.9466C11.1776 19.2499 11.1776 19.9499 10.8393 20.2533C10.6176 20.4516 10.3959 20.4749 8.3776 20.4749H6.16094L5.88094 20.1483C5.72927 19.9733 5.60094 19.7283 5.60094 19.6116C5.60094 19.3083 6.02094 18.8066 6.33594 18.7483C6.47594 18.7133 7.49093 18.7016 8.5876 18.7016C10.3843 18.7249 10.6176 18.7483 10.8393 18.9466ZM33.2392 18.9466C33.5775 19.2499 33.5775 19.9499 33.2392 20.2533C33.0058 20.4633 32.6675 20.4749 23.1942 20.4749H13.3942L13.1142 20.1483C12.9626 19.9733 12.8342 19.7283 12.8342 19.6116C12.8342 19.3083 13.2542 18.8066 13.5692 18.7483C13.7092 18.7133 18.1426 18.7016 23.4042 18.7133C32.6558 18.7249 33.0058 18.7366 33.2392 18.9466ZM29.2725 24.3949C29.8909 24.6166 30.0775 25.3399 29.6342 25.7832C29.4009 26.0166 29.2492 26.0166 17.7926 26.0166C6.33594 26.0166 6.18427 26.0166 5.95094 25.7832C5.53094 25.3632 5.67094 24.6749 6.23094 24.4299C6.70927 24.2199 28.6775 24.1849 29.2725 24.3949ZM14.5726 30.1466C14.9109 30.4499 14.9109 31.1499 14.5726 31.4532C14.3392 31.6632 14.0942 31.6749 10.2676 31.6749C6.44094 31.6749 6.19594 31.6632 5.9626 31.4532C5.47261 31.0099 5.70594 30.1116 6.35927 29.9482C6.4876 29.9132 8.33093 29.9016 10.4543 29.9016C14.0826 29.9249 14.3392 29.9366 14.5726 30.1466ZM22.0392 30.1466C22.3775 30.4499 22.3775 31.1499 22.0392 31.4532C21.8176 31.6516 21.5959 31.6749 19.6009 31.6749C17.6059 31.6749 17.3842 31.6516 17.1626 31.4532C16.8476 31.1732 16.8242 30.4499 17.1276 30.1932C17.4426 29.9016 17.6642 29.8782 19.7876 29.9016C21.5842 29.9249 21.8176 29.9482 22.0392 30.1466ZM21.1059 35.7465C21.4442 36.0499 21.4442 36.7499 21.1059 37.0532C20.8726 37.2632 20.5692 37.2749 13.5342 37.2749C6.49927 37.2749 6.19594 37.2632 5.9626 37.0532C5.47261 36.6099 5.70594 35.7115 6.35927 35.5482C6.4876 35.5132 9.80093 35.5015 13.7209 35.5132C20.5692 35.5249 20.8726 35.5365 21.1059 35.7465ZM11.0726 41.3465C11.4109 41.6499 11.4109 42.3499 11.0726 42.6532C10.8509 42.8515 10.6293 42.8749 8.49426 42.8749H6.16094L5.88094 42.5482C5.72927 42.3732 5.60094 42.1282 5.60094 42.0115C5.60094 41.7082 6.02094 41.2065 6.33594 41.1482C6.47594 41.1132 7.54927 41.1015 8.70426 41.1015C10.6176 41.1249 10.8509 41.1482 11.0726 41.3465ZM25.7725 41.3465C26.1109 41.6499 26.1109 42.3499 25.7725 42.6532C25.5392 42.8632 25.2592 42.8749 19.5776 42.8749H13.6276L13.3476 42.5482C13.1959 42.3732 13.0676 42.1282 13.0676 42.0115C13.0676 41.7082 13.4876 41.2065 13.8026 41.1482C13.9426 41.1132 16.6376 41.1015 19.7876 41.1132C25.2592 41.1249 25.5392 41.1365 25.7725 41.3465ZM19.2392 46.9465C19.5776 47.2498 19.5776 47.9498 19.2392 48.2532C19.0059 48.4632 18.7259 48.4748 12.5776 48.4748H6.16094L5.88094 48.1482C5.72927 47.9732 5.60094 47.7282 5.60094 47.6115C5.60094 47.3082 6.02094 46.8065 6.33594 46.7482C6.47594 46.7132 9.38093 46.7015 12.7876 46.7132C18.7142 46.7248 19.0059 46.7365 19.2392 46.9465Z" fill="#9D9D9D"/>
<path d="M33.6006 3.73348C33.6006 6.84847 33.6123 7.0118 33.8339 7.23346C34.0556 7.45513 34.2189 7.4668 37.3572 7.4668H40.6589L37.1589 3.96681C35.2339 2.04182 33.6473 0.466822 33.6356 0.466822C33.6123 0.466822 33.6006 1.93682 33.6006 3.73348Z" fill="#9D9D9D"/>
<path d="M37.0778 21.2104C35.4911 22.797 35.4678 22.8204 35.4678 23.3337V23.8587L39.8778 28.257L44.2761 32.667H44.7894C45.2911 32.667 45.3377 32.632 46.8194 31.1853C48.5111 29.517 48.7444 29.1437 48.4877 28.5487C48.3944 28.3387 46.4577 26.3203 44.0194 23.882L39.7144 19.6004H39.2011C38.6994 19.6004 38.6644 19.6237 37.0778 21.2104Z" fill="#9D9D9D"/>
<path d="M32.8427 28.2336C31.6294 29.4469 30.6727 30.4852 30.731 30.5319C30.7777 30.5786 32.3177 32.1652 34.1494 34.0319C35.981 35.9102 37.5327 37.4502 37.6144 37.4502C37.6844 37.4502 38.746 36.4585 39.9593 35.2335L42.176 33.0169L40.1927 31.0102C39.096 29.9019 37.5444 28.3269 36.751 27.4986C35.9577 26.6819 35.246 26.0169 35.176 26.0169C35.1177 26.0169 34.0677 27.0086 32.8427 28.2336Z" fill="#9D9D9D"/>
<path d="M25.8776 32.4096C24.2909 33.9962 24.2676 34.0196 24.2676 34.5329V35.0579L28.6776 39.4562L33.0759 43.8662H33.6009C34.1142 43.8662 34.1375 43.8429 35.7242 42.2562C37.3109 40.6696 37.3342 40.6462 37.3342 40.1329V39.6079L32.9242 35.2096L28.5259 30.7996H28.0009C27.4876 30.7996 27.4642 30.8229 25.8776 32.4096Z" fill="#9D9D9D"/>
<path d="M41.0907 36.435C40.1224 37.415 39.3174 38.255 39.3174 38.3017C39.3174 38.3484 41.5107 41.125 44.194 44.485C47.554 48.6733 49.234 50.68 49.5723 50.9016C49.8407 51.0766 50.4123 51.31 50.8323 51.415C52.2207 51.765 53.8307 51.2866 54.8923 50.225C55.6973 49.4317 56.234 48.16 56.234 47.0517C56.234 46.4333 55.8723 45.2783 55.534 44.8C55.2773 44.4383 43.1557 34.65 42.969 34.65C42.9107 34.65 42.0707 35.455 41.0907 36.435Z" fill="#9D9D9D"/>
<path d="M38.9092 41.148C38.8742 41.323 38.1509 42.163 37.2409 43.0964L35.6426 44.7414L36.7159 44.8114C38.0459 44.9164 38.5242 45.068 39.1192 45.6047C39.8076 46.223 40.0176 46.7597 40.0176 47.9497V48.9413L40.5426 49.268C40.8342 49.443 41.1026 49.583 41.1259 49.583C41.1609 49.583 41.1842 48.2063 41.1842 46.5147V43.458L40.1342 42.1397C39.5509 41.428 39.0609 40.833 39.0376 40.833C39.0142 40.833 38.9559 40.973 38.9092 41.148Z" fill="#9D9D9D"/>
<path d="M23.5673 46.8999C23.3807 47.0865 23.334 47.2849 23.334 47.8332V48.5332H30.8006H38.2673V47.8332C38.2673 46.5615 38.9089 46.6665 30.8006 46.6665C23.9523 46.6665 23.8006 46.6665 23.5673 46.8999Z" fill="#9D9D9D"/>
<path d="M22.1092 50.6217C21.8525 50.7384 21.4792 51.0184 21.2692 51.2284C20.6508 51.8933 20.5342 52.3133 20.5342 54.0167C20.5342 55.3817 20.5575 55.5567 20.7675 55.7667C21.0008 56 21.1525 56 30.8008 56C40.3208 56 40.6124 55.9883 40.8224 55.7783C41.1141 55.4867 41.2308 54.6817 41.1491 53.48C41.0674 52.3717 40.8574 51.7883 40.3324 51.2284C39.5041 50.365 39.9941 50.4 30.8008 50.4C23.0308 50.4 22.5525 50.4117 22.1092 50.6217Z" fill="#9D9D9D"/>
</svg>
