<svg width="57" height="56" viewBox="0 0 57 56" fill="none" xmlns="http://www.w3.org/2000/svg">
<path d="M0.303333 0.303333L0 0.618332V28V55.3817L0.303333 55.6967L0.618333 56H20.4283C31.3367 56 40.25 55.9767 40.25 55.9533C40.25 55.93 39.9583 55.72 39.5967 55.4867C39.235 55.2417 38.57 54.67 38.1033 54.215C33.6233 49.77 33.6117 42.5717 38.08 38.08C39.4917 36.6567 41.37 35.595 43.33 35.0817L44.3333 34.825V22.3767V9.92833L40.11 9.89333C35.4083 9.85833 35.2917 9.835 34.7317 9.05333C34.475 8.69167 34.475 8.63333 34.44 4.34L34.405 0H17.5117H0.618333L0.303333 0.303333ZM22.5633 8.76167C22.8433 8.98333 22.8667 9.065 22.8667 9.88167C22.8667 11.2583 22.6567 11.1883 27.0433 11.2H30.695L30.975 11.4917C31.3017 11.8067 31.325 11.9233 31.1383 12.285C30.9283 12.67 30.8117 12.7167 29.9017 12.7167C29.3883 12.7167 29.05 12.7633 29.05 12.8333C29.05 12.9033 29.5517 14.28 30.17 15.89C31.15 18.4683 31.2667 18.8767 31.1967 19.2967C30.94 20.8833 29.4583 22.1667 27.8833 22.1667C26.285 22.1667 24.8733 20.9183 24.5583 19.25C24.5 18.9117 24.675 18.3517 25.5967 15.9133C26.215 14.3033 26.7167 12.9267 26.7167 12.845C26.7167 12.7517 26.215 12.7167 25.0483 12.7167C23.45 12.7167 23.3683 12.7283 23.1233 12.985L22.8667 13.265L22.89 18.6083L22.925 23.9633L24.675 24.6867L26.425 25.41V25.8533V26.3083H22.1083H17.7917V25.865V25.41L19.5417 24.6867L21.2917 23.975L21.3267 18.62L21.35 13.265L21.0933 12.985C20.8483 12.7283 20.7667 12.7167 19.1683 12.7167C18.095 12.7167 17.5 12.7633 17.5 12.8333C17.5 12.9033 18.0017 14.28 18.62 15.89C19.6 18.4683 19.7167 18.8767 19.6467 19.2967C19.4717 20.3467 18.76 21.3383 17.7917 21.8517C17.1267 22.2133 15.54 22.2133 14.875 21.8517C14.2917 21.5483 13.4867 20.6967 13.265 20.1483C12.845 19.145 12.8567 19.0517 14.0583 15.9133C14.665 14.3033 15.1667 12.9267 15.1667 12.8567C15.1667 12.775 14.8283 12.7167 14.28 12.6933C13.4633 12.6583 13.3583 12.635 13.1483 12.3433C12.95 12.075 12.9267 11.9817 13.0433 11.725C13.125 11.5617 13.3117 11.375 13.4867 11.3167C13.65 11.2467 15.295 11.2 17.3367 11.2C21.5483 11.2 21.35 11.27 21.35 9.91667C21.35 9.19333 21.385 9.05333 21.6417 8.80833C21.98 8.45833 22.1667 8.44667 22.5633 8.76167ZM37.3683 31.5233C37.6833 31.7683 37.73 32.235 37.4617 32.5617L37.24 32.8417H22.4H7.56L7.33833 32.5617C7.05833 32.2117 7.05833 31.9083 7.35 31.6167C7.58333 31.3833 7.735 31.3833 22.3767 31.3833C34.0317 31.3833 37.2167 31.4183 37.3683 31.5233ZM37.38 36.225C37.8 36.6567 37.695 37.2517 37.1467 37.45C36.96 37.52 31.22 37.5667 22.2717 37.5667H7.68833L7.40833 37.275C7.05833 36.9367 7.035 36.5983 7.35 36.2833C7.58333 36.05 7.735 36.05 22.3883 36.05C35.42 36.05 37.2167 36.0733 37.38 36.225ZM22.89 40.915C23.1 41.1017 23.17 41.6033 23.0067 41.8367C22.7617 42.2217 22.4233 42.2333 15.05 42.2333H7.68833L7.40833 41.9417C7.05833 41.6033 7.035 41.265 7.35 40.95C7.58333 40.7167 7.735 40.7167 15.1317 40.7167C21.98 40.7167 22.6917 40.74 22.89 40.915Z" fill="#9D9D9D"/>
<path d="M15.5632 16.1231L14.8516 18.0247L16.3099 18.0597C17.1149 18.0714 17.7799 18.0714 17.8032 18.0481C17.8499 18.0014 16.4032 14.2331 16.3332 14.2331C16.2982 14.2331 15.9482 15.0847 15.5632 16.1231Z" fill="#9D9D9D"/>
<path d="M27.113 16.1231L26.4014 18.0247L27.8597 18.0597C28.6647 18.0714 29.3297 18.0714 29.353 18.0481C29.3997 18.0014 27.953 14.2331 27.883 14.2331C27.848 14.2331 27.498 15.0847 27.113 16.1231Z" fill="#9D9D9D"/>
<path d="M14.6997 19.6927C14.6997 19.8211 15.283 20.3577 15.598 20.5211C15.738 20.5911 16.0647 20.6494 16.333 20.6494C16.6014 20.6494 16.928 20.5911 17.068 20.5211C17.383 20.3577 17.9664 19.8211 17.9664 19.6927C17.9664 19.6461 17.2314 19.5994 16.333 19.5994C15.4347 19.5994 14.6997 19.6461 14.6997 19.6927Z" fill="#9D9D9D"/>
<path d="M26.25 19.6927C26.25 19.8211 26.8333 20.3577 27.1483 20.5211C27.2883 20.5911 27.615 20.6494 27.8833 20.6494C28.1517 20.6494 28.4783 20.5911 28.6183 20.5211C28.9333 20.3577 29.5167 19.8211 29.5167 19.6927C29.5167 19.6461 28.7817 19.5994 27.8833 19.5994C26.985 19.5994 26.25 19.6461 26.25 19.6927Z" fill="#9D9D9D"/>
<path d="M35.9336 4.51482V8.28315L36.2019 8.34148C36.3419 8.37648 38.0453 8.38815 39.9936 8.37648L43.5169 8.34148L39.7253 4.54982L35.9336 0.758151V4.51482Z" fill="#9D9D9D"/>
<path d="M45.1503 36.2947C41.7903 36.5981 38.7803 38.6631 37.2869 41.6964C36.5636 43.1314 36.2603 44.5081 36.2603 46.1414C36.2719 50.7031 39.0953 54.4247 43.5169 55.7197C44.1353 55.8947 44.6486 55.9414 46.2003 55.9414C48.0669 55.9414 48.1603 55.9297 49.2336 55.5564C52.5819 54.4014 54.8919 51.8931 55.7669 48.4514C56.0936 47.2147 56.0819 45.1031 55.7669 43.7497C54.6236 38.9781 50.1553 35.8397 45.1503 36.2947ZM48.1253 38.2081C49.0703 38.4414 50.5636 39.1997 51.2753 39.7947C53.2236 41.4047 54.2853 43.6681 54.2853 46.1414C54.2853 47.5531 54.0753 48.4747 53.4103 49.8164C53.0136 50.6214 52.7336 51.0064 51.8703 51.8697C51.0069 52.7331 50.6219 53.0131 49.8169 53.4097C48.4869 54.0631 47.5653 54.2847 46.1419 54.2964C43.0269 54.2964 40.2269 52.5697 38.8503 49.7581C37.2519 46.5264 37.8469 42.9214 40.3786 40.3781C42.4319 38.3247 45.3603 37.5081 48.1253 38.2081Z" fill="#9D9D9D"/>
<path d="M44.9515 39.5502C40.0982 40.4136 37.8465 46.2002 40.8215 50.1669C42.1165 51.8936 44.0065 52.8036 46.2582 52.7686C48.4982 52.7452 50.5515 51.6136 51.7532 49.7352C52.8032 48.1136 53.0715 45.8969 52.4532 44.0419C51.7649 42.0119 50.3065 40.5186 48.3465 39.8419C47.4249 39.5269 45.8732 39.3869 44.9515 39.5502ZM46.6082 41.0086C46.7832 41.1836 46.8999 41.4286 46.8999 41.6386C46.8999 41.9302 46.9582 42.0002 47.3199 42.1169C47.8915 42.3152 48.6499 43.0502 48.6499 43.4352C48.6499 43.8202 48.1249 44.2519 47.7865 44.1469C47.6465 44.1002 47.3665 43.9136 47.1565 43.7386C46.7132 43.3536 45.9549 43.2836 45.3949 43.5752C44.4965 44.0302 44.9632 45.3836 46.0132 45.3836C46.6199 45.3836 47.5065 45.6986 47.9732 46.0836C49.4199 47.2736 49.0465 49.5019 47.2849 50.2486C46.9699 50.3769 46.8999 50.4702 46.8999 50.7386C46.8999 51.1702 46.3982 51.6019 46.0365 51.4969C45.6982 51.4036 45.3832 51.0069 45.3832 50.7036C45.3832 50.5286 45.2549 50.3886 44.9865 50.2602C43.7615 49.6652 43.3649 48.7436 44.1815 48.3119C44.4732 48.1602 44.7415 48.2536 45.3832 48.7202C46.2932 49.3852 47.5765 48.6852 47.3199 47.6586C47.2149 47.2619 46.8065 47.0169 46.0015 46.9002C45.1149 46.7719 44.7999 46.6436 44.2749 46.1769C43.4465 45.4536 43.1899 44.3919 43.6215 43.4586C43.8665 42.9219 44.6599 42.1519 45.0915 42.0469C45.3249 41.9886 45.3832 41.9069 45.3832 41.5919C45.3832 41.3119 45.4649 41.1369 45.6865 40.9619C46.0832 40.6469 46.2699 40.6586 46.6082 41.0086Z" fill="#9D9D9D"/>
</svg>
