<svg width="24" height="24" viewBox="0 0 24 24" fill="none" xmlns="http://www.w3.org/2000/svg">
<path d="M15.6532 0H8.4192C1.82138 0 0.254395 1.56698 0.254395 8.1648V15.3988C0.254395 21.9967 1.82138 23.5636 8.4192 23.5636H15.6532C22.251 23.5636 23.818 21.9967 23.818 15.3988V8.1648C23.818 1.56698 22.251 0 15.6532 0ZM19.282 16.8127H17.5619C16.9139 16.8127 16.7136 16.2825 15.5708 15.1161C14.534 14.1382 14.0862 13.9968 13.8388 13.9968C13.4972 13.9968 13.3911 14.0911 13.3911 14.5859V16.1293C13.3911 16.5417 13.2615 16.8009 12.1658 16.8009C10.3514 16.8009 8.33672 15.6934 6.9229 13.6551C4.79039 10.6625 4.21309 8.40044 4.21309 7.95273C4.21309 7.70531 4.29556 7.46967 4.79039 7.46967H6.52232C6.95825 7.46967 7.12319 7.65818 7.28814 8.12945C8.13643 10.6036 9.55025 12.7244 10.1276 12.7244C10.3514 12.7244 10.4457 12.6183 10.4457 12.0764V9.54327C10.3868 8.38866 9.76232 8.28262 9.76232 7.87026C9.76232 7.65818 9.92727 7.46967 10.1982 7.46967H12.8963C13.2615 7.46967 13.3911 7.65818 13.3911 8.10589V11.5108C13.3911 11.8761 13.5443 12.0057 13.6621 12.0057C13.8742 12.0057 14.0627 11.8761 14.4515 11.4755C15.6886 10.097 16.5722 7.96451 16.5722 7.96451C16.69 7.71709 16.8785 7.48146 17.338 7.48146H19.0228C19.5412 7.48146 19.6591 7.75244 19.5412 8.11767C19.3292 9.11913 17.232 12.0764 17.2556 12.0764C17.0671 12.3709 16.9964 12.5005 17.2556 12.8422C17.4323 13.0896 18.0332 13.608 18.4337 14.0675C19.1642 14.904 19.7297 15.5991 19.8829 16.0822C20.0125 16.5652 19.7769 16.8127 19.282 16.8127Z" fill="#686868"/>
</svg>
