<svg width="26" height="19" viewBox="0 0 26 19" fill="none" xmlns="http://www.w3.org/2000/svg">
<path d="M21.2355 18.4037C22.585 18.2254 23.7959 17.637 24.7182 16.7062C25.434 15.9847 25.7961 15.2067 25.946 14.0779C26.0139 13.5743 26.0168 13.2801 25.9602 12.7001C25.8074 11.1441 25.2472 10.0831 24.1835 9.33905C23.1763 8.63176 21.8579 8.20173 20.3386 8.08291C20.0784 8.0631 19.8577 8.03764 19.8464 8.02915C19.8011 7.98106 20.1123 7.05309 20.3132 6.64852C20.8705 5.51969 21.5184 4.82372 22.8764 3.89009C23.1819 3.68074 23.3404 3.57889 23.8949 3.24787C24.1042 3.12339 24.7889 2.77823 25.0407 2.67356C25.1425 2.63112 25.3519 2.54341 25.5075 2.47834L25.7904 2.35952V1.17976C25.7904 0.291403 25.7819 0 25.7565 0C25.7197 0 24.9728 0.260283 24.6588 0.381936C23.7223 0.744069 22.9754 1.07508 22.0955 1.5136C20.6895 2.21806 19.8379 2.76409 18.76 3.66093C18.4148 3.94668 17.6396 4.71338 17.3228 5.07834C16.2703 6.29488 15.4414 7.74058 15.0849 8.98824C14.9689 9.38998 14.8076 10.1991 14.7595 10.6235C14.6945 11.1922 14.6747 11.9758 14.7114 12.5049C14.7624 13.2178 14.8246 13.5715 15.0142 14.2335C15.3904 15.5377 16.0808 16.6892 16.8757 17.3399C17.2718 17.6624 17.8405 17.9765 18.3356 18.1434C18.6298 18.2424 19.2862 18.3839 19.6087 18.4178C19.9793 18.4546 20.8932 18.4461 21.2355 18.4037Z" fill="#727272"/>
<path d="M6.3541 18.4259C7.14344 18.3326 7.78 18.1571 8.40242 17.8629C9.67554 17.2603 10.6148 16.2871 11.025 15.1441C11.4947 13.837 11.3843 11.9811 10.7619 10.7815C10.3262 9.93844 9.7491 9.39807 8.7306 8.88316C7.78566 8.4022 6.58044 8.10797 5.34975 8.05422C5.14888 8.04573 5.14605 8.02309 5.27337 7.5874C5.62135 6.40199 6.30035 5.375 7.24812 4.59981C7.67249 4.25465 7.68947 4.23768 8.12233 3.93779C9.00786 3.32386 10.0773 2.74671 10.8666 2.45531C11.1439 2.35346 11.1212 2.46663 11.1212 1.16804C11.1212 0.214615 11.1156 0.0222326 11.0816 0.010916C11.059 0.00242849 10.96 0.0278909 10.861 0.06467C10.7648 0.104278 10.5865 0.169349 10.4705 0.211786C10.148 0.324953 8.83811 0.845518 8.64572 0.933222C8.55236 0.975659 8.27793 1.10297 8.03745 1.21614C6.07968 2.11864 4.68773 3.04377 3.38914 4.29992C1.97739 5.66358 0.933434 7.2762 0.404382 8.91145C0.294044 9.24812 0.127124 10.0459 0.0592241 10.5382C-0.0199928 11.121 -0.0199928 12.346 0.0592241 12.9571C0.214828 14.1539 0.61091 15.2686 1.21352 16.2079C1.56151 16.7539 1.92081 17.1443 2.39328 17.4979C2.67337 17.7073 3.29861 18.027 3.6664 18.1487C3.97761 18.2505 4.57173 18.3778 4.90274 18.4146C5.15454 18.4429 6.15323 18.4514 6.3541 18.4259Z" fill="#727272"/>
</svg>
