<svg width="136" height="966" viewBox="0 0 136 966" fill="none" xmlns="http://www.w3.org/2000/svg">
<path d="M43.8 103.85C43.8 104.15 43.5 104.3 42.9 104.3C42.3 104.3 42 104.15 42 103.85C42 100.45 42.05 97.75 42.15 95.75L42.3 84.8L42.15 72.35C42.05 70.25 42 67.45 42 63.95C42 63.65 42.3 63.5 42.9 63.5C43.5 63.5 43.8 63.65 43.8 63.95C43.8 67.35 44.05 69.85 44.55 71.45C45.05 73.05 46 74.1 47.4 74.6C48.9 75.2 51.15 75.5 54.15 75.5L121.8 75.5C125.2 75.5 127.45 75.35 128.55 75.05C129.65 74.85 130.35 74.3 130.65 73.4C130.95 72.5 131.1 70.7 131.1 68L131.1 37.25C131.1 34.25 130.95 32.25 130.65 31.25C130.35 30.25 129.65 29.6 128.55 29.3C127.45 29.1 125.2 29 121.8 29L54.15 29C51.05 29 48.8 29.25 47.4 29.75C46 30.35 45.05 31.4 44.55 32.9C44.05 34.5 43.8 37.05 43.8 40.55C43.8 40.85 43.5 41 42.9 41C42.3 41 42 40.85 42 40.55C42 37.05 42.05 34.25 42.15 32.15L42.3 19.7L42.15 8.6C42.05 6.6 42 3.89999 42 0.499995C42 0.299995 42.3 0.199995 42.9 0.199995C43.5 0.199995 43.8 0.299995 43.8 0.499995C43.8 4 44.05 6.55 44.55 8.14999C45.05 9.75 46 10.85 47.4 11.45C48.9 12.05 51.15 12.35 54.15 12.35L121.8 12.35C126.3 12.35 129.45 11.6 131.25 10.1C133.05 8.6 133.95 5.5 133.95 0.799999C133.95 0.499999 134.25 0.349999 134.85 0.349999C135.45 0.349999 135.75 0.499999 135.75 0.799999C135.75 4.2 135.7 7.5 135.6 10.7C135.4 24.1 135.3 38.15 135.3 52.85C135.3 66.15 135.45 81.5 135.75 98.9L135.75 103.85C135.75 104.15 135.45 104.3 134.85 104.3C134.25 104.3 133.95 104.15 133.95 103.85C133.95 99.15 133.05 96 131.25 94.4C129.45 92.9 126.3 92.15 121.8 92.15L54.15 92.15C51.15 92.15 48.9 92.45 47.4 93.05C46 93.65 45.05 94.75 44.55 96.35C44.05 97.95 43.8 100.45 43.8 103.85ZM40.05 146.746C40.05 141.846 40.6 137.546 41.7 133.846L12.9 133.846C9.89999 133.846 7.69999 134.146 6.29999 134.746C4.89999 135.446 3.94999 136.696 3.44999 138.496C2.84999 140.396 2.54999 143.296 2.54999 147.196C2.54999 147.496 2.24999 147.646 1.64999 147.646C1.04999 147.646 0.749992 147.496 0.749992 147.196C0.749993 143.496 0.799992 140.596 0.899991 138.496L1.04999 126.646L0.899992 117.796C0.799993 116.296 0.749994 114.196 0.749994 111.496C0.749994 111.196 1.04999 111.046 1.64999 111.046C2.24999 111.046 2.54999 111.196 2.54999 111.496C2.54999 113.896 2.84999 115.646 3.44999 116.746C3.94999 117.946 4.94999 118.746 6.44999 119.146C7.84999 119.646 9.99999 119.896 12.9 119.896L87.75 119.896C91.95 119.896 94.7 119.146 96 117.646C97.4 116.246 98.1 113.696 98.1 109.996C98.1 109.796 98.4 109.696 99 109.696C99.6 109.696 99.9 109.796 99.9 109.996L99.9 130.546C99.9 131.946 99.65 132.846 99.15 133.246C98.65 133.646 97.75 133.846 96.45 133.846L92.1 133.846C98.6 141.046 101.85 148.446 101.85 156.046C101.85 160.246 100.75 164.146 98.55 167.746C96.35 171.446 93.15 174.396 88.95 176.596C84.75 178.796 79.85 179.896 74.25 179.896C66.25 179.896 59.65 178.246 54.45 174.946C49.35 171.646 45.65 167.446 43.35 162.346C41.15 157.346 40.05 152.146 40.05 146.746ZM93.45 146.146C93.45 141.646 91.85 137.546 88.65 133.846L51.3 133.846C48.8 136.046 46.9 138.346 45.6 140.746C44.4 143.146 43.8 146.096 43.8 149.596C43.8 159.696 52.4 164.746 69.6 164.746C77.2 164.746 83.05 162.946 87.15 159.346C91.35 155.846 93.45 151.446 93.45 146.146ZM50.1 247.375C50.1 247.775 49.85 248.025 49.35 248.125C48.95 248.325 48.65 248.225 48.45 247.825L41.1 232.375C40.9 231.975 40.8 231.475 40.8 230.875C40.8 229.375 41.55 227.875 43.05 226.375C44.55 224.975 46.6 223.975 49.2 223.375L45.45 216.475C44.15 213.875 43.05 211.175 42.15 208.375C41.35 205.575 40.95 203.075 40.95 200.875C40.95 197.675 41.75 195.125 43.35 193.225C45.05 191.425 47.45 190.525 50.55 190.525C52.85 190.525 54.7 191.075 56.1 192.175C57.5 193.375 58.65 195.025 59.55 197.125C60.55 199.325 61.85 202.775 63.45 207.475L68.4 222.775L80.25 222.775C86.25 222.775 90.65 222.175 93.45 220.975C96.35 219.775 97.8 217.825 97.8 215.125C97.8 212.725 96.9 210.825 95.1 209.425C93.3 208.025 90.35 207.175 86.25 206.875C80.65 206.275 77.85 203.325 77.85 198.025C77.85 193.325 79.9 190.975 84 190.975C86.7 190.975 89.4 192.675 92.1 196.075C94.8 199.475 97 203.575 98.7 208.375C100.4 213.175 101.25 217.375 101.25 220.975C101.25 225.675 99.85 229.475 97.05 232.375C94.25 235.375 90.15 236.875 84.75 236.875L58.2 236.875C55.3 236.875 53.05 237.375 51.45 238.375C49.85 239.475 49.05 240.975 49.05 242.875C49.05 244.275 49.4 245.725 50.1 247.225L50.1 247.375ZM51.6 222.925C52.3 222.825 53.35 222.775 54.75 222.775L65.85 222.775L62.85 214.525C61.85 211.825 60.75 209.875 59.55 208.675C58.35 207.575 56.9 207.025 55.2 207.025C53.1 207.025 51.45 207.625 50.25 208.825C49.05 210.025 48.45 211.525 48.45 213.325C48.45 215.525 49.15 218.075 50.55 220.975L51.6 222.925ZM74.1 292.96C73 305.46 68.4 311.71 60.3 311.71C54.9 311.71 50.45 309.36 46.95 304.66C43.45 299.96 41.7 293.86 41.7 286.36C41.7 285.16 41.8 282.46 42 278.26C42.2 273.46 42.3 270.01 42.3 267.91L42.15 259.21C42.05 257.61 42 255.36 42 252.46C42 252.16 42.3 252.01 42.9 252.01C43.5 252.01 43.8 252.16 43.8 252.46C43.8 254.86 44.05 256.61 44.55 257.71C45.05 258.91 46 259.71 47.4 260.11C48.9 260.51 51.15 260.71 54.15 260.71L87.75 260.71C90.75 260.71 92.95 260.51 94.35 260.11C95.85 259.71 96.85 258.91 97.35 257.71C97.85 256.61 98.1 254.91 98.1 252.61C98.1 252.31 98.4 252.16 99 252.16C99.6 252.16 99.9 252.31 99.9 252.61L99.75 267.91L99.9 275.71C100.1 279.51 100.2 282.31 100.2 284.11C100.2 298.31 96.4 305.41 88.8 305.41C86.2 305.41 83.7 304.36 81.3 302.26C78.9 300.26 76.5 297.16 74.1 292.96ZM97.2 280.51C97.2 278.11 96.6 276.51 95.4 275.71C94.2 275.01 91.55 274.66 87.45 274.66L74.25 274.66L74.25 287.41L74.25 288.76C77.25 289.76 80.65 290.26 84.45 290.26C89.05 290.26 92.3 289.46 94.2 287.86C96.2 286.36 97.2 283.91 97.2 280.51ZM44.85 283.81C44.85 288.11 45.85 291.26 47.85 293.26C49.95 295.26 53.05 296.26 57.15 296.26C61.55 296.26 65 295.11 67.5 292.81C70.1 290.61 71.4 287.06 71.4 282.16L71.4 274.66L54.15 274.66C50.85 274.66 48.45 275.26 46.95 276.46C45.55 277.76 44.85 280.21 44.85 283.81ZM66.9 356.178C66.9 355.978 67.3 355.778 68.1 355.578C68.9 355.478 69.75 355.428 70.65 355.428C71.45 355.428 72.2 355.478 72.9 355.578C73.6 355.778 73.95 355.928 73.95 356.028L73.95 470.478C73.95 470.678 73.55 470.828 72.75 470.928C72.05 471.128 71.3 471.228 70.5 471.228C69.6 471.228 68.75 471.128 67.95 470.928C67.25 470.828 66.9 470.678 66.9 470.478L66.9 356.178ZM43.8 586.196C43.8 586.396 43.5 586.496 42.9 586.496C42.3 586.496 42 586.396 42 586.196C42 583.396 42.05 581.246 42.15 579.746L42.3 571.346L42.15 562.496C42.05 560.896 42 558.696 42 555.896C42 555.596 42.3 555.446 42.9 555.446C43.5 555.446 43.8 555.596 43.8 555.896C43.8 558.296 44.05 560.046 44.55 561.146C45.05 562.346 46 563.146 47.4 563.546C48.9 563.946 51.15 564.146 54.15 564.146L81.6 564.146L55.05 537.746L54.15 537.746C51.15 537.746 48.9 537.946 47.4 538.346C46 538.746 45.05 539.496 44.55 540.596C44.05 541.696 43.8 543.446 43.8 545.846C43.8 546.046 43.5 546.146 42.9 546.146C42.3 546.146 42 546.046 42 545.846C42 543.046 42.05 540.896 42.15 539.396L42.3 530.996L42.15 522.296C42.05 520.696 42 518.446 42 515.546C42 515.246 42.3 515.096 42.9 515.096C43.5 515.096 43.8 515.246 43.8 515.546C43.8 517.946 44.05 519.696 44.55 520.796C45.05 521.996 46 522.796 47.4 523.196C48.9 523.596 51.15 523.796 54.15 523.796L87.75 523.796C90.75 523.796 92.95 523.596 94.35 523.196C95.85 522.796 96.85 521.996 97.35 520.796C97.85 519.696 98.1 517.996 98.1 515.696C98.1 515.396 98.4 515.246 99 515.246C99.6 515.246 99.9 515.396 99.9 515.696C99.9 518.496 99.85 520.646 99.75 522.146L99.6 530.996L99.75 539.396C99.85 540.996 99.9 543.146 99.9 545.846C99.9 546.046 99.6 546.146 99 546.146C98.4 546.146 98.1 546.046 98.1 545.846C98.1 543.546 97.8 541.796 97.2 540.596C96.6 539.496 95.55 538.746 94.05 538.346C92.65 537.946 90.45 537.746 87.45 537.746L60.45 537.746L86.85 564.146L87.75 564.146C90.75 564.146 92.95 563.946 94.35 563.546C95.85 563.146 96.85 562.346 97.35 561.146C97.85 560.046 98.1 558.346 98.1 556.046C98.1 555.746 98.4 555.596 99 555.596C99.6 555.596 99.9 555.746 99.9 556.046C99.9 558.846 99.85 560.996 99.75 562.496L99.6 571.346L99.75 579.746C99.85 581.346 99.9 583.496 99.9 586.196C99.9 586.396 99.6 586.496 99 586.496C98.4 586.496 98.1 586.396 98.1 586.196C98.1 583.896 97.8 582.146 97.2 580.946C96.6 579.846 95.55 579.096 94.05 578.696C92.65 578.296 90.45 578.096 87.45 578.096L54.15 578.096C51.15 578.096 48.9 578.296 47.4 578.696C46 579.096 45.05 579.846 44.55 580.946C44.05 582.046 43.8 583.796 43.8 586.196ZM42 642.676C42 642.376 42.3 642.226 42.9 642.226C43.5 642.226 43.8 642.376 43.8 642.676C43.8 645.076 44.05 646.826 44.55 647.926C45.05 649.126 46 649.926 47.4 650.326C48.9 650.726 51.15 650.926 54.15 650.926L87.45 650.926C90.95 650.926 93.35 650.626 94.65 650.026C95.95 649.526 96.6 648.476 96.6 646.876C96.6 643.976 95.05 641.126 91.95 638.326C88.85 635.626 85 633.676 80.4 632.476C80.2 632.376 80.1 632.026 80.1 631.426C80.1 630.926 80.2 630.676 80.4 630.676L90.15 630.376C94.15 630.176 97 630.076 98.7 630.076C99.3 630.076 99.65 630.126 99.75 630.226C99.95 630.326 100.05 630.676 100.05 631.276C100.05 633.376 100 635.226 99.9 636.826L99.75 657.526L99.9 678.676C100 680.376 100.05 682.326 100.05 684.526C100.05 685.226 99.95 685.626 99.75 685.726C99.65 685.826 99.3 685.876 98.7 685.876C88.7 685.376 82.6 685.126 80.4 685.126C80.2 685.126 80.1 684.826 80.1 684.226C80.1 683.726 80.2 683.426 80.4 683.326C85 682.126 88.85 680.126 91.95 677.326C95.05 674.626 96.6 671.826 96.6 668.926C96.6 667.326 95.95 666.226 94.65 665.626C93.35 665.126 90.95 664.876 87.45 664.876L54.15 664.876C51.15 664.876 48.9 665.076 47.4 665.476C46 665.876 45.05 666.626 44.55 667.726C44.05 668.926 43.8 670.676 43.8 672.976C43.8 673.276 43.5 673.426 42.9 673.426C42.3 673.426 42 673.276 42 672.976C42 670.176 42.05 668.026 42.15 666.526L42.3 658.126L42.15 649.426C42.05 647.826 42 645.576 42 642.676ZM40.05 725.154C40.05 718.954 41.45 713.504 44.25 708.804C47.15 704.204 51 700.654 55.8 698.154C60.7 695.654 66 694.404 71.7 694.404C78.2 694.404 83.7 696.054 88.2 699.354C92.8 702.654 96.2 706.854 98.4 711.954C100.7 717.054 101.85 722.304 101.85 727.704C101.85 733.904 100.4 739.304 97.5 743.904C94.6 748.504 90.75 752.004 85.95 754.404C81.25 756.904 76.2 758.154 70.8 758.154C64.8 758.154 59.45 756.654 54.75 753.654C50.15 750.654 46.55 746.604 43.95 741.504C41.35 736.504 40.05 731.054 40.05 725.154ZM43.2 729.654C43.2 733.554 45.1 736.504 48.9 738.504C52.8 740.604 58.35 741.654 65.55 741.654C72.55 741.654 78.55 740.754 83.55 738.954C88.55 737.154 92.3 734.804 94.8 731.904C97.4 729.004 98.7 725.904 98.7 722.604C98.7 714.604 91.55 710.604 77.25 710.604C70.55 710.604 64.6 711.454 59.4 713.154C54.3 714.854 50.3 717.154 47.4 720.054C44.6 722.954 43.2 726.154 43.2 729.654ZM43.8 825.392C43.8 825.692 43.5 825.842 42.9 825.842C42.3 825.842 42 825.692 42 825.392C42 822.592 42.05 820.442 42.15 818.942L42.3 810.542L42.15 801.692C42.05 800.092 42 797.892 42 795.092C42 794.892 42.3 794.792 42.9 794.792C43.5 794.792 43.8 794.892 43.8 795.092C43.8 797.492 44.05 799.242 44.55 800.342C45.05 801.542 46 802.342 47.4 802.742C48.9 803.142 51.15 803.342 54.15 803.342L70.5 803.342C64.8 797.342 61.95 791.192 61.95 784.892C61.95 779.892 63.45 775.992 66.45 773.192C69.55 770.392 74.1 768.992 80.1 768.992L87.75 768.992C90.75 768.992 92.95 768.842 94.35 768.542C95.85 768.342 96.85 767.942 97.35 767.342C97.85 766.742 98.1 765.742 98.1 764.342C98.1 764.142 98.4 764.042 99 764.042C99.6 764.042 99.9 764.142 99.9 764.342C99.9 766.542 99.85 768.242 99.75 769.442L99.6 776.192L99.75 783.092C99.85 784.392 99.9 786.192 99.9 788.492C99.9 788.692 99.6 788.792 99 788.792C98.4 788.792 98.1 788.692 98.1 788.492C98.1 786.092 97.4 784.542 96 783.842C94.6 783.142 91.75 782.792 87.45 782.792L83.4 782.792C78.4 782.792 74.8 783.492 72.6 784.892C70.4 786.392 69.3 788.742 69.3 791.942C69.3 793.442 69.65 795.242 70.35 797.342C71.15 799.442 72.2 801.442 73.5 803.342L87.75 803.342C90.75 803.342 92.95 803.192 94.35 802.892C95.85 802.692 96.85 802.192 97.35 801.392C97.85 800.692 98.1 799.542 98.1 797.942C98.1 797.642 98.4 797.492 99 797.492C99.6 797.492 99.9 797.642 99.9 797.942C99.9 800.242 99.85 802.092 99.75 803.492L99.6 810.542L99.75 818.942C99.85 820.542 99.9 822.692 99.9 825.392C99.9 825.692 99.6 825.842 99 825.842C98.4 825.842 98.1 825.692 98.1 825.392C98.1 823.092 97.8 821.392 97.2 820.292C96.6 819.192 95.55 818.442 94.05 818.042C92.65 817.642 90.45 817.442 87.45 817.442L54.15 817.442C51.15 817.442 48.9 817.642 47.4 818.042C46 818.442 45.05 819.192 44.55 820.292C44.05 821.392 43.8 823.092 43.8 825.392ZM43.8 901.929C43.8 902.229 43.5 902.379 42.9 902.379C42.3 902.379 42 902.229 42 901.929L42 884.079C42 883.079 42.25 882.179 42.75 881.379C43.25 880.579 44.5 879.429 46.5 877.929C48.5 876.429 51.8 874.329 56.4 871.629C60.7 869.029 63.8 866.979 65.7 865.479C67.6 864.079 68.9 862.629 69.6 861.129C70.4 859.729 70.8 857.929 70.8 855.729L70.8 855.429L54.15 855.429C51.15 855.429 48.9 855.629 47.4 856.029C46 856.429 45.05 857.179 44.55 858.279C44.05 859.479 43.8 861.229 43.8 863.529C43.8 863.829 43.5 863.979 42.9 863.979C42.3 863.979 42 863.829 42 863.529C42 860.729 42.05 858.579 42.15 857.079L42.3 848.679L42.15 839.979C42.05 838.379 42 836.129 42 833.229C42 832.929 42.3 832.779 42.9 832.779C43.5 832.779 43.8 832.929 43.8 833.229C43.8 835.629 44.05 837.379 44.55 838.479C45.05 839.679 46 840.479 47.4 840.879C48.9 841.279 51.15 841.479 54.15 841.479L87.75 841.479C90.75 841.479 92.95 841.279 94.35 840.879C95.85 840.479 96.85 839.729 97.35 838.629C97.85 837.529 98.1 835.779 98.1 833.379C98.1 833.179 98.4 833.079 99 833.079C99.6 833.079 99.9 833.179 99.9 833.379C99.9 836.179 99.85 838.329 99.75 839.829L99.6 848.679L99.75 858.279C99.85 859.979 99.9 862.329 99.9 865.329C99.9 865.529 99.6 865.629 99 865.629C98.4 865.629 98.1 865.529 98.1 865.329C98.1 862.429 97.85 860.279 97.35 858.879C96.85 857.579 95.85 856.679 94.35 856.179C92.85 855.679 90.55 855.429 87.45 855.429L73.35 855.429L73.65 862.629C73.65 864.629 76.35 866.879 81.75 869.379C89.45 873.179 94.65 876.479 97.35 879.279C100.05 882.179 101.4 885.279 101.4 888.579C101.4 891.479 100.7 893.629 99.3 895.029C98 896.529 96.25 897.279 94.05 897.279C91.75 897.279 89.9 896.629 88.5 895.329C87.1 894.029 86.4 892.129 86.4 889.629C86.4 888.129 86.8 886.579 87.6 884.979C88.4 883.379 88.8 881.929 88.8 880.629C88.8 879.029 88.25 877.679 87.15 876.579C86.15 875.579 83.95 874.229 80.55 872.529C77.65 871.129 75.3 869.629 73.5 868.029C73.3 870.929 72.7 873.279 71.7 875.079C70.8 876.879 69.45 878.529 67.65 880.029C65.95 881.529 63.2 883.529 59.4 886.029C56.4 887.829 54.65 888.929 54.15 889.329C50.25 891.629 47.55 893.529 46.05 895.029C44.65 896.629 43.9 898.929 43.8 901.929ZM50.1 964.563C50.1 964.963 49.85 965.213 49.35 965.313C48.95 965.513 48.65 965.413 48.45 965.013L41.1 949.563C40.9 949.163 40.8 948.663 40.8 948.063C40.8 946.563 41.55 945.063 43.05 943.563C44.55 942.163 46.6 941.163 49.2 940.563L45.45 933.663C44.15 931.063 43.05 928.363 42.15 925.563C41.35 922.763 40.95 920.263 40.95 918.063C40.95 914.863 41.75 912.313 43.35 910.413C45.05 908.613 47.45 907.713 50.55 907.713C52.85 907.713 54.7 908.263 56.1 909.363C57.5 910.563 58.65 912.213 59.55 914.313C60.55 916.513 61.85 919.963 63.45 924.663L68.4 939.963L80.25 939.963C86.25 939.963 90.65 939.363 93.45 938.163C96.35 936.963 97.8 935.013 97.8 932.313C97.8 929.913 96.9 928.013 95.1 926.613C93.3 925.213 90.35 924.363 86.25 924.063C80.65 923.463 77.85 920.513 77.85 915.213C77.85 910.513 79.9 908.163 84 908.163C86.7 908.163 89.4 909.863 92.1 913.263C94.8 916.663 97 920.763 98.7 925.563C100.4 930.363 101.25 934.563 101.25 938.163C101.25 942.863 99.85 946.663 97.05 949.563C94.25 952.563 90.15 954.063 84.75 954.063L58.2 954.063C55.3 954.063 53.05 954.563 51.45 955.563C49.85 956.663 49.05 958.163 49.05 960.063C49.05 961.463 49.4 962.913 50.1 964.413L50.1 964.563ZM51.6 940.113C52.3 940.013 53.35 939.963 54.75 939.963L65.85 939.963L62.85 931.713C61.85 929.013 60.75 927.063 59.55 925.863C58.35 924.763 56.9 924.213 55.2 924.213C53.1 924.213 51.45 924.813 50.25 926.013C49.05 927.213 48.45 928.713 48.45 930.513C48.45 932.713 49.15 935.263 50.55 938.163L51.6 940.113Z" fill="#393838"/>
</svg>
